<?xml version="1.0" encoding="UTF-8" standalone="no"?>
<!DOCTYPE svg  PUBLIC '-//W3C//DTD SVG 1.1//EN'  'http://www.w3.org/Graphics/SVG/1.1/DTD/svg11.dtd'>
<svg xmlns="http://www.w3.org/2000/svg">
<defs>
<font id="HelveticaCondensedBold-Regular" horiz-adv-x="987">
<font-face underline-position="-75" font-weight="400" descent="-410" panose-1="2 11 5 0 0 0 0 0 0 0" units-per-em="2048" unicode-range="U+0020-2122" bbox="-192 -463 2183 1968" x-height="1143" underline-thickness="50" font-family="HelveticaCondensedBold" ascent="1638" cap-height="1522"/>
<missing-glyph horiz-adv-x="2048"/>
<glyph glyph-name=".notdef" horiz-adv-x="2048"/>
<glyph glyph-name=".null" horiz-adv-x="0"/>
<glyph glyph-name="nonmarkingreturn" horiz-adv-x="0"/>
<glyph glyph-name="space" horiz-adv-x="422" unicode=" "/>
<glyph glyph-name="exclam" horiz-adv-x="658" unicode="!" d="M461 0h-261v271h261v-271zM196 1094v428h263v-428q4 -73 4 -113q0 -73 -4 -145t-10 -136q-6 -66 -14 -138l-19 -171h-172q-3 96 -20 279q-16 183 -22 255t-6 169z"/>
<glyph glyph-name="quotedbl" horiz-adv-x="658" unicode='&quot;' d="M266 951h-237v546h237v-546zM635 951h-244v546h244v-546z"/>
<glyph glyph-name="dollar" d="M428 934v367q-52 -9 -79 -53t-27 -105q0 -66 24 -105t82 -104zM428 170v457q-103 65 -155 103q-53 39 -98 92q-45 54 -71 128t-26 175q0 147 86 251t260 125v127h131v-127q159 -18 242 -95q82 -76 84 -185q8 -96 8 -131h-231q0 93 -22 142t-87 69v-410q171 -83 274 -200 t103 -263q0 -214 -86 -321q-85 -108 -285 -136v-221h-131v213q-128 11 -210 68t-120 151t-38 216q0 36 2 55h243v-43q-1 -70 7 -114t36 -77t84 -49zM549 578v-408q118 35 118 172q-1 71 -33 137t-85 99z" unicode="$"/>
<glyph glyph-name="percent" horiz-adv-x="1647" unicode="%" d="M1295 594q-57 0 -83 -26t-30 -69q-6 -44 -6 -130q0 -85 6 -128t30 -69q26 -26 83 -26q51 0 75 26t28 69q5 43 5 128q0 86 -5 130q-4 43 -28 69t-75 26zM1290 740q136 0 204 -50q66 -49 86 -127t20 -194q0 -115 -19 -193q-19 -76 -87 -126t-204 -50t-203 50t-85 126 t-19 193q1 118 19 195t85 126q67 50 203 50zM549 -29h-145l450 1035l223 516h142l-443 -1038zM361 1342q-55 0 -82 -26q-26 -26 -33 -70q-6 -45 -6 -125q0 -82 6 -127q7 -45 33 -72q27 -27 82 -27q53 1 77 27t30 70t5 129q1 84 -5 127t-30 68q-24 26 -77 26zM357 1493 q137 0 205 -49q68 -50 86 -126t18 -197q0 -89 -8 -151t-38 -113t-94 -80t-169 -29q-136 0 -204 49t-87 127t-19 197t19 197t87 126q68 49 204 49z"/>
<glyph glyph-name="ampersand" horiz-adv-x="1317" unicode="&amp;" d="M765 279l-243 416q-67 -27 -105 -97t-38 -153q0 -103 54 -179q54 -75 147 -75q95 0 185 88zM718 860l187 -329q49 135 52 276h219q0 -283 -131 -510l178 -301h-297l-55 101q-74 -73 -159 -104q-85 -30 -194 -30q-110 0 -202 60q-92 59 -144 165t-53 232q0 108 33 193 t94 153t154 133q-60 117 -87 184q-26 67 -26 144q0 169 101 249q101 81 243 81q83 0 157 -38t118 -111q45 -72 45 -169q0 -232 -233 -379zM609 1051q113 91 113 180q0 52 -35 84q-35 33 -76 33q-37 0 -61 -24t-23 -72q0 -31 12 -64q11 -32 35 -74t35 -63z"/>
<glyph glyph-name="quotesingle" horiz-adv-x="514" unicode="&apos;" d="M142 971v90q129 20 129 195h-129v266h241v-242q1 -92 -21 -154t-75 -102q-53 -38 -145 -53z"/>
<glyph glyph-name="parenleft" horiz-adv-x="658" unicode="(" d="M391 1557h162q-47 -97 -80 -189q-35 -91 -59 -212t-37 -273q-12 -151 -12 -352q0 -143 8 -255q9 -112 31 -222t57 -217q36 -106 94 -237h-164q-111 188 -173 336t-89 306t-27 377q0 179 30 339t93 308q64 148 166 291z"/>
<glyph glyph-name="parenright" horiz-adv-x="658" unicode=")" d="M266 -400h-160q64 130 104 259t61 313q22 182 22 451q0 144 -9 260t-30 222q-22 106 -58 215t-94 237h164q92 -155 158 -325t99 -350q34 -178 34 -357q0 -124 -17 -244t-53 -235q-35 -116 -91 -230t-130 -216z"/>
<glyph glyph-name="asterisk" d="M761 934l-132 -98l-111 158q-3 3 -20 28q-2 -5 -5 -10l-9 -12t-11 -15l-108 -149l-133 90l115 156q7 21 18 32q-7 0 -18 4t-21 7l-176 55l47 153l181 -53q5 -2 12 -4q8 -2 12 -4t10 -8q-4 16 -4 45v188h160v-188v-37q38 13 45 16l172 54l55 -158l-182 -51q-21 -8 -33 -8 q5 -7 14 -19t13 -20z" unicode="*"/>
<glyph glyph-name="comma" horiz-adv-x="658" unicode="," d="M196 -295v92q68 7 105 59t37 144h-142v271h265v-267q0 -130 -67 -207t-198 -92z"/>
<glyph glyph-name="hyphen" horiz-adv-x="658" unicode="-" d="M568 514h-474v234h474v-234z"/>
<glyph glyph-name="period" horiz-adv-x="658" unicode="." d="M461 0h-265v271h265v-271z"/>
<glyph glyph-name="slash" horiz-adv-x="514" unicode="/" d="M-41 -191l281 1035l192 678h177l-287 -1038l-189 -675h-174z"/>
<glyph glyph-name="zero" d="M90 404v686q0 230 102 332t302 102q198 0 301 -102q102 -101 102 -332v-686q-1 -228 -103 -330t-300 -103q-130 -1 -220 43t-136 140q-48 96 -48 250zM369 1090v-686q0 -122 31 -168q31 -45 90 -45q131 0 131 213v686q0 215 -131 215q-58 0 -90 -47q-31 -48 -31 -168z " unicode="0"/>
<glyph glyph-name="one" d="M416 0v1055h-338v201q164 0 271 59q108 59 145 207h205v-1522h-283z" unicode="1"/>
<glyph glyph-name="two" d="M879 0h-826q0 125 25 258q36 179 268 428l135 146q81 88 110 140q29 53 29 153q0 180 -134 180q-96 0 -124 -64q-19 -44 -23.5 -89.5t-4.5 -137.5h-268q0 90 3.5 137.5t18.5 111.5q22 98 118 179q96 82 292 82q117 0 208 -48q90 -47 140.5 -136t50.5 -207 q0 -123 -42.5 -224t-133.5 -192l-219 -229q-145 -150 -149 -267h526v-221z" unicode="2"/>
<glyph glyph-name="three" d="M334 703v219q5 0 57 3t57.5 4t10.5 2q28 4 51 15q45 21 68.5 70t23.5 109q0 73 -37 126.5t-104 53.5q-126 0 -131 -121v-111h-268l-2 45q0 406 401 406q205 0 307 -102q103 -102 103 -285q0 -74 -20 -141.5t-64 -115.5q-30 -33 -71 -49q-40 -16 -42 -16 q104 -11 163.5 -103.5t59.5 -262.5q0 -477 -436 -477q-256 0 -335 131t-79 309v92h262q3 -63 5 -114t14 -96t45 -74q34 -29 96 -29q101 0 126 72q26 73 26 216q0 127 -33 162q-53 62 -254 62z" unicode="3"/>
<glyph glyph-name="four" d="M494 1497h313v-966h131v-223l-131 -1v-307h-281v307h-489v224zM244 531h282l2 612z" unicode="4"/>
<glyph glyph-name="five" d="M329 698h-251l41 799h725v-221h-510l-16 -325q47 47 97 65t120 18q220 0 297 -148q78 -149 78 -378q0 -272 -94 -404t-322 -133q-127 0 -211 31q-84 29 -132 90t-69 155q-20 94 -20 232h267q1 -44 3 -95q3 -52 14 -93q12 -41 41 -69t82 -31q107 -1 133 81t29 238 q0 173 -42 237t-120 64q-55 0 -94 -32q-39 -31 -46 -81z" unicode="5"/>
<glyph glyph-name="six" d="M74 547v365q0 238 46 371q46 134 140 187q94 54 250 54q110 0 194 -36q83 -35 130 -111t47 -193h-256q-4 54 -26 87q-22 34 -97 34q-56 -4 -87.5 -34t-43.5 -72t-14 -95q-3 -52 -4 -86v-100q40 50 86 77q47 27 133 27q176 0 257 -117.5t81 -357.5q0 -199 -36 -324 t-127 -188q-90 -63 -249 -63q-164 0 -257 67q-93 68 -130 193.5t-37 314.5zM357 527v-88q1 -82 10.5 -134.5t41 -83t93.5 -30.5q82 2 105.5 58t23.5 179v160q0 99 -26 156t-111 57q-64 0 -94 -39t-36.5 -94t-6.5 -141z" unicode="6"/>
<glyph glyph-name="seven" d="M53 1276v221h848v-204q-80 -149 -144 -305q-64 -155 -111 -322q-48 -166 -76 -333t-35 -333h-291q16 219 68 441t140 435q87 213 202 400h-601z" unicode="7"/>
<glyph glyph-name="eight" d="M287 824q-63 33 -102 75q-38 41 -56 107t-18 170q0 88 39 167t126 130t222 51q137 0 221 -43t122 -129t38 -215q0 -85 -16 -144q-15 -59 -57 -103t-116 -75q125 -24 174 -116q50 -93 50 -267q0 -243 -105 -351q-105 -110 -307 -110q-156 1 -252 51t-138 151t-42 259 q0 163 49 250q50 86 168 142zM494 914q63 0 98 59t35 139q0 79 -34 136t-95 57q-65 -1 -102 -61t-37 -138q0 -79 35 -136q36 -56 100 -56zM353 420q0 -117 25 -172t120 -57q64 5 94 39t36 84q6 49 7 135q0 87 -8 140q-8 54 -39 89t-94 35q-64 -1 -94 -31t-39 -79 q-8 -49 -8 -136v-47z" unicode="8"/>
<glyph glyph-name="nine" d="M910 951v-369q0 -238 -45 -371q-46 -132 -138 -186q-93 -53 -250 -53q-170 0 -268 81q-98 82 -98 259h258q0 -52 23 -86.5t98 -34.5q57 0 88.5 29t43.5 71.5t14 98.5l3 180q-50 -51 -94 -75t-129 -24q-118 0 -194.5 54t-112 161t-35.5 265q0 196 38 321.5t130 188.5 q93 63 252 63q122 0 204 -38.5t128 -111t65 -176.5t19 -247zM631 971v88q-2 122 -29 184t-116 62q-82 0 -105.5 -56t-23.5 -178v-161q0 -100 26 -157.5t111 -57.5q90 0 113.5 72t23.5 204z" unicode="9"/>
<glyph glyph-name="colon" horiz-adv-x="514" unicode=":" d="M387 0h-260v271h260v-271zM387 860h-260v269h260v-269z"/>
<glyph glyph-name="semicolon" horiz-adv-x="514" unicode=";" d="M387 860h-260v269h260v-269zM127 -295v92q67 7 103 59t36 144h-139v271h260v-267q1 -128 -65 -206t-195 -93z"/>
<glyph glyph-name="less" d="M318 504l592 -330v-221l-836 451v207l836 454v-221z" unicode="&lt;"/>
<glyph glyph-name="greater" d="M74 174l596 330l-596 340v221l836 -454v-207l-836 -451v221z" unicode="&gt;"/>
<glyph glyph-name="question" d="M287 266h256v-266h-256v266zM346 1121h-247q-2 18 -2 53q0 128 46 213q45 86 133 128t210 42q88 -1 160 -27t122 -76q52 -50 80 -119q28 -70 27 -155q0 -98 -38 -185q-39 -87 -93 -156t-144 -165q-44 -52 -59 -116q-14 -65 -14 -155h-235q0 73 6 144q6 85 44 152t112 164 q75 95 111 164t36 153q0 166 -119 166q-63 0 -91 -31q-28 -30 -34 -70q-6 -39 -11 -124z" unicode="?"/>
<glyph glyph-name="at" horiz-adv-x="1647" unicode="@" d="M1000 748q0 233 -164 233q-62 -5 -112 -41t-81 -96q-31 -59 -34 -125q0 -197 141 -215q74 0 128 38t85 94q30 56 37 112zM1301 302h192q-74 -104 -170 -180q-97 -76 -211 -118t-241 -41q-163 0 -311 60t-260 170t-175 258t-63 317q0 220 106 401t290 285t400 103 q179 0 347 -82q167 -81 271 -229q103 -147 103 -332q0 -142 -67 -285q-67 -142 -187 -233q-120 -90 -268 -90q-33 0 -57 33q-25 34 -25 102q-132 -129 -250 -129q-102 0 -180 49q-78 50 -120 136t-42 189q0 125 54 236t152 179q98 66 222 66q173 0 254 -120l25 104h196 l-106 -624q0 -23 8 -31q9 -8 31 -8q60 14 108 78q49 65 75 146q26 82 26 144q0 173 -74 297q-73 124 -204 188q-130 64 -296 64q-182 0 -328 -82t-226 -228q-81 -146 -81 -327q0 -145 51 -266q50 -121 142 -208t213 -132q121 -47 260 -47q211 0 416 187z"/>
<glyph glyph-name="A" horiz-adv-x="1073" unicode="A" d="M416 611h242l-119 739zM297 0h-301l361 1522h376l340 -1522h-297l-73 383h-330z"/>
<glyph glyph-name="B" horiz-adv-x="1073" unicode="B" d="M609 0h-499v1522h449q116 0 193 -21q77 -23 129 -96q82 -94 82 -258q0 -113 -48 -206q-25 -49 -56 -77.5t-57 -40.5q-24 -12 -26 -12q118 -12 171 -111t53 -237q0 -96 -24 -188q-32 -98 -79.5 -158.5t-118.5 -88.5t-169 -28zM387 903q127 0 179 10q49 9 77 46 q31 45 31 166q0 91 -30 132t-122 44h-135v-398zM387 221l135 -2q57 0 99 19q86 43 86 215q0 86 -16.5 134.5t-61 71.5t-131.5 23h-111v-461z"/>
<glyph glyph-name="C" horiz-adv-x="1073" unicode="C" d="M721 539h287l-8 -82q-10 -233 -105.5 -363.5t-314.5 -130.5q-164 0 -264.5 51t-148.5 143.5t-62 210.5q-15 119 -15 298v215q7 182 22 293q16 110 63.5 198t145 136.5t259.5 48.5q189 -3 292 -100q104 -98 119 -293q9 -74 9 -117h-279q-11 136 -24 181q-13 42 -41 69.5 t-76 27.5q-126 0 -164 -95q-24 -63 -31.5 -122t-7.5 -162v-424q0 -86 13 -157q12 -70 57 -122t133 -52q53 0 83 37.5t41.5 92t13.5 117.5t3 101z"/>
<glyph glyph-name="D" horiz-adv-x="1172" unicode="D" d="M639 0h-516v1522h584q160 0 242.5 -112t105 -261t22.5 -325q0 -206 -11 -342t-61 -257.5t-157 -183.5q-66 -41 -209 -41zM400 221h123q95 0 149 28.5t80 92t33 165.5t7 290q0 146 -9 238q-8 91 -30 150.5t-62 87.5q-39 28 -103 28h-188v-1080z"/>
<glyph glyph-name="E" d="M910 0h-787v1522h787v-221h-510v-389h471v-222h-471v-469h510v-221z" unicode="E"/>
<glyph glyph-name="F" d="M416 0h-279v1522h801v-221h-522v-389h485v-222h-485v-690z" unicode="F"/>
<glyph glyph-name="G" horiz-adv-x="1172" unicode="G" d="M86 666v215q7 182 22 293q16 110 63.5 198t145 136.5t259.5 48.5q131 -2 223 -30.5t155 -99.5q48 -54 72.5 -126.5t28.5 -125.5q1 -9 4 -59q2 -50 2 -73h-276q-3 95 -16 151t-58 92t-135 39q-126 0 -164 -95q-26 -62 -32.5 -121.5t-6.5 -162.5v-424q0 -140 38 -235.5 t165 -95.5q95 0 147 84q62 100 62 319h-193v221h463v-815h-206l-5 175q-31 -90 -90 -141q-70 -62 -178 -71q-164 0 -264.5 51t-148.5 143.5t-62 210.5q-15 119 -15 298z"/>
<glyph glyph-name="H" horiz-adv-x="1172" unicode="H" d="M391 0h-277v1522h277v-608h397v608h277v-1522h-277v695h-397v-695z"/>
<glyph glyph-name="I" horiz-adv-x="514" unicode="I" d="M396 0h-277v1522h277v-1522z"/>
<glyph glyph-name="J" horiz-adv-x="844" unicode="J" d="M-8 484h283v-189q0 -104 86 -104q67 0 85.5 41t18.5 121v1169h281v-1114q0 -143 -15 -217.5t-69 -130.5q-50 -52 -124 -79q-74 -26 -155 -26q-107 0 -203.5 44t-146.5 120q-43 67 -43 279q0 57 2 86z"/>
<glyph glyph-name="K" horiz-adv-x="1073" unicode="K" d="M396 0h-277v1522h277l4 -678l342 678h315l-371 -653l387 -869h-313l-266 602l-98 -166v-436z"/>
<glyph glyph-name="L" d="M934 0h-805v1522h279v-1301h526v-221z" unicode="L"/>
<glyph glyph-name="M" horiz-adv-x="1549" unicode="M" d="M408 0h-279v1522h447l209 -1057l194 1057h449v-1522h-282l18 1383l-302 -1383h-172l-307 1383z"/>
<glyph glyph-name="N" horiz-adv-x="1172" unicode="N" d="M785 1522h276v-1522h-289l-422 1143l29 -455l12 -688h-277v1522h286l424 -1161h4q-22 253 -32 453z"/>
<glyph glyph-name="O" horiz-adv-x="1172" unicode="O" d="M383 946v-424q0 -139 40 -235t169 -96q92 0 136.5 53.5t53.5 126.5q10 72 10 176v391q0 105 -11 185.5t-55.5 141t-133.5 60.5q-91 0 -137 -52.5t-59 -123.5q-13 -73 -13 -203zM98 666v215q6 174 22 287.5t64.5 202.5t146.5 137.5t261 48.5q164 0 260 -48 q97 -49 143.5 -137t61.5 -198t20 -293v-215q0 -183 -13.5 -300.5t-60.5 -209t-146.5 -142.5t-264.5 -51q-166 0 -267 51t-150 144q-48 92 -63 211q-14 119 -14 297z"/>
<glyph glyph-name="P" horiz-adv-x="1073" unicode="P" d="M396 0h-277v1522h571q111 0 192 -63t124 -165q41 -103 41 -214q0 -109 -38.5 -203.5t-110.5 -153.5q-113 -86 -309 -86h-193v-637zM396 1301v-441h150q100 0 152 52t52 182q0 87 -23 131.5t-69.5 60t-130.5 15.5h-131z"/>
<glyph glyph-name="Q" horiz-adv-x="1172" unicode="Q" d="M609 258l151 125l16 -14q16 91 16 153v424q0 151 -12 211q-13 69 -57.5 118.5t-130.5 49.5q-91 0 -137 -52.5t-59 -123.5q-13 -73 -13 -203v-424q0 -139 40 -235t169 -96q43 0 70 12zM1153 -8l-141 -134l-158 150q-90 -45 -262 -45q-166 0 -267 51t-150 144 q-48 92 -63 211q-14 119 -14 297v215q6 174 22 287.5t64.5 202.5t146.5 137.5t261 48.5q164 0 260 -48q97 -49 143.5 -137t61.5 -198t20 -293v-215q0 -180 -15.5 -310t-61.5 -210z"/>
<glyph glyph-name="R" horiz-adv-x="1172" unicode="R" d="M387 1301v-424h226q78 6 121.5 67t43.5 144q0 85 -46.5 147.5t-131.5 65.5h-213zM387 654v-654h-277v1522h529q198 0 312 -85t114 -282q0 -152 -41.5 -235.5t-91.5 -109.5t-87 -26h-2q113 -15 160 -84q30 -44 39 -94.5t9 -142.5q0 -395 63 -434v-29h-311q-27 101 -27 383 q-4 88 -7 124q-4 37 -25 76.5t-66 52.5q-71 18 -291 18z"/>
<glyph glyph-name="S" horiz-adv-x="1073" unicode="S" d="M961 1057h-270q0 81 -11 138.5t-47 93.5t-106 36q-77 0 -117.5 -32t-40.5 -109q0 -53 21 -90t48 -59q13 -10 75.5 -52t99.5 -67t112 -76q61 -42 126.5 -106.5t107 -148.5t41.5 -185q0 -210 -126.5 -323.5t-338.5 -113.5q-164 0 -266.5 57.5t-148.5 161.5t-46 246v107h283 v-86q0 -121 40 -189.5t138 -68.5q84 0 128 48t44 120q0 59 -29 117t-77 94q-15 11 -98.5 68t-154 107t-99.5 75q-73 62 -121 145q-49 84 -49 190q0 129 48 219q49 90 148.5 136.5t246.5 46.5q198 0 294 -80q97 -80 121 -185q24 -104 24 -235z"/>
<glyph glyph-name="T" d="M25 1301v221h938v-221h-328v-1301h-283v1301h-327z" unicode="T"/>
<glyph glyph-name="U" horiz-adv-x="1172" unicode="U" d="M788 484v1038h277v-1061q0 -176 -42.5 -283.5t-145.5 -161t-285 -53.5q-183 0 -287.5 53.5t-146.5 161.5q-44 107 -44 283v1061h277v-1038q0 -93 12 -153.5t56.5 -100t136.5 -39.5q121 0 156.5 76t35.5 217z"/>
<glyph glyph-name="V" horiz-adv-x="1073" unicode="V" d="M756 1522h299l-326 -1522h-376l-332 1522h301l227 -1364z"/>
<glyph glyph-name="W" horiz-adv-x="1647" unicode="W" d="M942 1522l211 -1331h2l166 1331h295l-283 -1522h-337l-177 1082l-161 -1082h-336l-285 1522h289l176 -1331h4l201 1331h235z"/>
<glyph glyph-name="X" horiz-adv-x="1073" unicode="X" d="M699 772l370 -772h-319l-215 561h-4l-222 -561h-309l369 772l-352 750h313l209 -537h4l199 537h315z"/>
<glyph glyph-name="Y" horiz-adv-x="1073" unicode="Y" d="M309 1522l230 -633l229 633h301l-395 -877v-645h-283v645l-387 877h305z"/>
<glyph glyph-name="Z" d="M53 0v226l568 1079l-12 -1.5t-43 -0.5q-40 -1 -176 -1q-136 -1 -300 -1v221h820v-225l-560 -1084l584 8v-221h-881z" unicode="Z"/>
<glyph glyph-name="bracketleft" horiz-adv-x="658" unicode="[" d="M555 -191h-400v1035v678h400v-156h-178v-1038v-365h178v-154z"/>
<glyph glyph-name="backslash" horiz-adv-x="465" unicode="\" d="M-192 1522h209l443 -1038l206 -484h-211l-442 1034z"/>
<glyph glyph-name="bracketright" horiz-adv-x="658" unicode="]" d="M102 1522h400v-1038v-675h-400v154h180v1035v368h-180v156z"/>
<glyph glyph-name="underscore" d="M996 -238h-1004v115h1004v-115z" unicode="_"/>
<glyph glyph-name="grave" horiz-adv-x="658" unicode="`" d="M-4 1567h313l189 -291h-205z"/>
<glyph glyph-name="a" d="M592 602q-70 -44 -126.5 -81t-92 -85t-35.5 -120t26 -109t95 -37q83 0 108 63.5t25 168.5v200zM875 1h-246q-8 17 -13 56t-7 62q-95 -147 -232 -147q-157 0 -230.5 82t-73.5 258q0 92 30.5 157t82.5 108t108 70t167 72q72 32 104.5 65.5t32.5 82.5q0 74 -44 93 q-28 11 -85 11q-56 0 -86 -19q-29 -19 -39 -55t-10 -94h-248q0 123 34.5 203.5t121 123t235.5 42.5q128 0 205.5 -29t113.5 -78q37 -49 46.5 -103t9.5 -126v-678q0 -88 23 -157z" unicode="a"/>
<glyph glyph-name="b" d="M123 0v1522h256v-295q-1 -63 -2 -123q-2 -61 -2 -77v-2q1 0 1 1h1q40 80 94.5 113t141.5 33q89 -3 146 -39t88 -124t34 -241v-415q-5 -169 -63 -275q-57 -106 -205 -106q-88 3 -142 35q-39 24 -71 70q-31 45 -31 46v-122zM379 717v-344q0 -203 127 -203q104 0 119 199 v379q-6 96 -11 130.5t-30 63.5t-82 29q-80 0 -101.5 -72.5t-21.5 -181.5z" unicode="b"/>
<glyph glyph-name="c" horiz-adv-x="844" unicode="c" d="M785 744h-262l-1 129q-6 98 -90 98q-66 0 -82 -60.5t-16 -197.5v-264q-1 -32 -1 -81q1 -80 9 -113q10 -44 31 -61.5t59 -22.5q53 2 68 40.5t22 129.5v108h263v-109q0 -183 -86 -276q-85 -92 -271 -92q-86 0 -152 23q-66 24 -112.5 75t-70.5 131q-24 81 -24 195v372 q0 223 95 313t264 90q93 0 162 -27q130 -51 176 -181q19 -60 19 -127v-92z"/>
<glyph glyph-name="d" d="M600 1v122h-4q-36 -84 -89 -116t-138 -35q-149 0 -206 106q-56 106 -64 275v415q4 151 35 240q32 89 88.5 125t146.5 39q87 0 141 -32q30 -19 48.5 -44t30.5 -48.5t13 -23.5l-2 498h258v-1521h-258zM600 373v344q0 109 -21 181.5t-102 72.5q-56 0 -80.5 -28.5t-29 -63.5 t-10.5 -131v-379q15 -199 116 -199q62 0 94.5 52t32.5 151z" unicode="d"/>
<glyph glyph-name="e" d="M357 717h264v102q-3 88 -32 120q-28 32 -107 32q-81 0 -103 -47t-22 -156v-51zM99 453v295q0 424 378 424q174 0 261 -58t114 -163t27 -281v-156h-522v-166q0 -104 34 -141t103 -37q70 0 96 50t27 163h258q-1 -203 -87 -307t-274 -105q-112 -1 -190 27t-128 85t-72 148 q-25 91 -25 222z" unicode="e"/>
<glyph glyph-name="f" horiz-adv-x="514" unicode="f" d="M123 951h-102v192h103v113v8q0 98 27 154q29 58 87 81t158 23h98v-211q-31 8 -64 8q-50 0 -50 -39v-137h114v-192h-114l-1 -951h-256v951z"/>
<glyph glyph-name="g" d="M111 -127h258q0 -37 36 -52.5t77 -15.5q131 0 131 178l-4 136q-40 -80 -95.5 -112t-144.5 -35q-149 0 -206 106q-56 106 -64 275v415q6 223 71 312q66 89 199 92q89 0 143 -35q54 -34 84 -111h4v117h258v-1036q0 -122 -3.5 -162.5t-12.5 -79.5q-17 -74 -62 -130 q-44 -56 -127.5 -87t-211.5 -31q-308 0 -330 256zM600 717q0 109 -21 181.5t-102 72.5q-56 0 -80.5 -28.5t-29 -63.5t-10.5 -131v-379q15 -199 116 -199q62 0 94.5 52t32.5 151v344z" unicode="g"/>
<glyph glyph-name="h" d="M373 0h-258v1522h258l4 -496q86 145 240 145q116 0 187 -70.5t71 -219.5v-881h-258v785q0 93 -22.5 138t-92.5 48q-129 0 -129 -215v-756z" unicode="h"/>
<glyph glyph-name="i" horiz-adv-x="514" unicode="i" d="M387 1284h-258v238h258v-238zM387 0h-258v1143h258v-1143z"/>
<glyph glyph-name="j" horiz-adv-x="514" unicode="j" d="M396 1284h-259v238h259v-238zM41 -383v200q44 0 62 6q34 10 34 54v1266h259v-1147l2 -121q0 -88 -22 -149.5t-83 -90.5q-45 -22 -164 -22q-27 0 -88 4z"/>
<glyph glyph-name="k" horiz-adv-x="844" unicode="k" d="M334 0h-265v1522h265v-832l242 453h286l-286 -461l278 -682h-291l-163 467l-66 -119v-348z"/>
<glyph glyph-name="l" horiz-adv-x="514" unicode="l" d="M387 0h-258v1522h258v-1522z"/>
<glyph glyph-name="m" horiz-adv-x="1549" unicode="m" d="M387 1143l4 -117q42 85 105 113q63 29 147 33q85 0 156.5 -36.5t81.5 -109.5q40 69 115 106q74 38 159 38q70 0 133 -28q63 -27 102 -83q38 -55 38 -133v-926h-264v772q0 96 -23.5 147.5t-99.5 51.5q-78 -3 -107 -57.5t-29 -165.5v-748h-258v789q0 92 -23 137t-106 45 q-60 0 -88.5 -27.5t-35.5 -72.5t-7 -123v-748h-258v1143h258z"/>
<glyph glyph-name="n" d="M373 1143l4 -117q40 79 107 115q56 31 133 31q116 0 187 -71t71 -220v-881h-258v764q0 94 -22 139t-93 48q-53 0 -85 -37q-44 -52 -44 -179v-735h-258v1143h258z" unicode="n"/>
<glyph glyph-name="o" d="M498 -29q-129 0 -208 33q-78 32 -120 100q-41 67 -56 168q-15 102 -15 259q2 185 11 287t46 184q36 82 118 126t224 44q139 0 219 -44q79 -44 115 -125t44 -184q9 -103 9 -288q0 -159 -14 -260q-15 -99 -55 -167t-116 -100t-202 -33zM357 752v-379q0 -79 9 -121 q8 -42 38 -62t94 -20q60 0 88 20t35 61q8 41 8 122v379q0 109 -22 164q-21 55 -109 55q-94 0 -118 -55t-23 -164z" unicode="o"/>
<glyph glyph-name="p" d="M369 1143v-123q39 85 94 119q52 33 137 33q133 -3 199 -93t72 -315v-416q-7 -167 -65 -272q-57 -104 -206 -104q-83 3 -137 33q-43 25 -75 70q-31 41 -31 44v-500h-246v1524h258zM369 717v-344q0 -203 125 -203q103 0 119 199v379q-8 125 -19 159q-11 29 -35.5 46.5 t-68.5 17.5q-79 0 -100 -72.5t-21 -181.5z" unicode="p"/>
<glyph glyph-name="q" d="M854 1143v-1524h-258l-4 504q-38 -82 -92.5 -115t-138.5 -36q-102 0 -161 54q-58 53 -81 137q-22 83 -25 190v415q2 152 33 240q31 89 87.5 125t146.5 39q87 0 142 -32q21 -11 39.5 -31.5t27 -35t16 -28.5t10.5 -19v117h258zM596 373v344q0 109 -21.5 181.5t-105.5 72.5 q-54 0 -77 -28q-22 -28 -27 -58.5t-12 -136.5v-379q7 -199 112 -199q64 0 97.5 52t33.5 151z" unicode="q"/>
<glyph glyph-name="r" horiz-adv-x="658" unicode="r" d="M365 1143l4 -201q41 101 104 155.5t162 66.5v-312q-21 3 -45 3q-81 0 -130 -28q-81 -45 -83 -165v-662h-258v1143h246z"/>
<glyph glyph-name="s" horiz-adv-x="844" unicode="s" d="M33 377h260q-2 -20 -2 -57q0 -99 32 -124.5t89 -25.5q49 0 79.5 33.5t30.5 97.5q-2 41 -29 63q-26 22 -102 72l-143 99q-103 76 -157 159q-54 84 -54 201q0 132 101 204q100 73 290 73q171 0 261 -83q100 -94 100 -292h-262q0 96 -29 135q-29 40 -94 40q-47 0 -77 -25 q-30 -24 -30 -70q0 -41 28 -74q14 -17 66 -59l218 -142q59 -40 116.5 -107.5t63.5 -121.5q4 -45 4 -68q0 -152 -87 -242q-87 -92 -310 -92q-80 0 -162 28.5t-143 106.5q-62 81 -62 210q0 16 2 37t2 24z"/>
<glyph glyph-name="t" horiz-adv-x="514" unicode="t" d="M486 203v-207q-87 -9 -133 -9q-238 0 -238 187v777h-107v192h107v315h258v-315h113v-192h-113v-713q5 -37 76 -37q13 1 22 1.5t15 0.5z"/>
<glyph glyph-name="u" d="M609 0l-5 170q-34 -103 -92 -151t-151 -48q-102 0 -156.5 33.5t-74.5 98.5q-19 64 -19 168v872h258v-782q0 -89 17.5 -140t86.5 -51q56 0 83.5 36t33.5 82.5t6 111.5v743h258v-1143h-245z" unicode="u"/>
<glyph glyph-name="v" horiz-adv-x="844" unicode="v" d="M262 0l-266 1143h283l145 -981h4l144 981h276l-260 -1143h-326z"/>
<glyph glyph-name="w" horiz-adv-x="1317" unicode="w" d="M756 1143q56 -309 88.5 -506t43.5 -269q12 -74 18 -124q6 -45 6 -54q0 5 2 5l110 948h262l-231 -1143h-283l-120 748h-9l-104 -748h-295l-232 1143h279l113 -952q2 62 8 108t45.5 291t85.5 553h213z"/>
<glyph glyph-name="x" horiz-adv-x="844" unicode="x" d="M291 582l-287 561h310l118 -311l121 311h291l-285 -557l293 -586h-297l-127 353h-4l-133 -353h-299z"/>
<glyph glyph-name="y" horiz-adv-x="844" unicode="y" d="M-16 1143h278l154 -913l152 913h268l-277 -1160q-37 -152 -48 -191.5t-39 -87.5t-79.5 -74t-131.5 -26q-53 0 -131 13l-1 205q27 -1 48.5 -3t23.5 -2q82 0 82 54q0 65 -24 146z"/>
<glyph glyph-name="z" horiz-adv-x="746" unicode="z" d="M717 955l-412 -752h412v-203h-689v207l400 735h-391v201h680v-188z"/>
<glyph glyph-name="braceleft" horiz-adv-x="514" unicode="{" d="M66 885v371q0 88 24 147t81 89q56 30 147 30h147v-4q-87 -20 -119 -76t-32 -145v-379q0 -112 -34 -172t-130 -80v-4q98 -14 131 -87t33 -192v-346q0 -179 151 -220v-4h-131q-152 -1 -210 71t-58 231v330q0 91 -31 143t-113 70v4q144 20 144 223z"/>
<glyph glyph-name="bar" horiz-adv-x="465" unicode="|" d="M133 0v1034v488h201v-1038v-484h-201z"/>
<glyph glyph-name="braceright" horiz-adv-x="514" unicode="}" d="M449 1252v-371q0 -198 151 -219v-4q-92 -11 -122 -64q-29 -54 -29 -153v-330q0 -109 -22 -174t-78 -97t-160 -31h-138v4q86 21 118 76t32 148v344q-1 119 31 183t133 94v4q-97 20 -131 80t-33 172v379q0 194 -150 221v8h138q96 -4 152 -30t82 -84t26 -156z"/>
<glyph glyph-name="asciitilde" d="M832 723l114 -145l-48 -78t-60 -85q-28 -32 -67 -53q-38 -22 -85 -22q-52 0 -109 24t-148 67q-91 44 -115 44q-31 -1 -54 -15t-40 -38q-18 -22 -32 -50t-32 -65l-113 154q62 116 121 183t145 67q59 1 103 -19t142 -69q99 -49 132 -49q36 0 60 22t43 55q19 32 43 72z" unicode="~"/>
<glyph glyph-name="nonbreakingspace" horiz-adv-x="657" unicode=" "/>
<glyph glyph-name="exclamdown" horiz-adv-x="658" unicode="¡" d="M200 903v269h261v-269h-261zM461 -344h-260v424q0 11 -2 33q-1 21 -1 33q0 97 7 178q6 82 19 231t16 230h176q2 -39 17 -213t21 -279q6 -104 7 -213v-424z"/>
<glyph glyph-name="cent" d="M592 445h260q0 -68 -8 -166q-9 -95 -52 -167t-114 -111q-71 -38 -160 -38q-48 0 -86 8l-45 -217h-133l47 254q-82 40 -123 132t-41 251v373q1 140 47 233t118 137t151 44q39 0 86 -14l29 194h143l-41 -221q182 -81 182 -305v-92h-260v159h-12l-119 -692q16 -16 47 -16 q34 0 51 13q26 33 33 133v108zM379 703v-424h4l115 672l-21 4q-66 -1 -82 -61t-16 -191z" unicode="¢"/>
<glyph glyph-name="sterling" d="M236 682h-174v121h131q-90 136 -90 338q0 130 58 224t160 143t228 49q249 0 352 -195q31 -55 39 -120t7 -165h-261q0 128 -26 192t-129 64q-170 0 -170 -212q0 -110 94 -318h291v-121h-248q23 -50 23 -112q0 -75 -35 -150q-35 -74 -92 -137t-119 -105l4 -4h4 q95 51 203 51q45 0 227 -26q113 0 197 67l57 -225q-100 -64 -236 -64q-99 0 -276 44q-57 12 -102 12q-91 0 -220 -62l-75 187q56 31 107 93t82 137q30 76 30 149q0 83 -41 145z" unicode="£"/>
<glyph glyph-name="currency" d="M498 885q-73 0 -126 -37q-54 -37 -80 -96t-26 -125q0 -106 62 -184t170 -78q105 0 165 78t60 184q1 66 -25 125t-77 96t-123 37zM8 279l86 86q-69 142 -69 272q0 131 69 252l-86 84l152 164l84 -90q119 71 254 71q136 0 248 -71l90 90l143 -164l-86 -84q76 -115 76 -268 q0 -147 -76 -256l86 -86l-143 -160l-90 84q-126 -74 -256 -74q-127 0 -246 74l-84 -84z" unicode="¤"/>
<glyph glyph-name="yen" d="M1032 1522l-397 -877v-123h217v-102h-217v-119h217v-102h-217v-199h-282v199h-224v102h224v119h-224v102h224v123l-396 877h314l157 -401q49 -116 66 -232h4q17 86 65 232l162 401h307z" unicode="¥"/>
<glyph glyph-name="section" d="M103 25h247q0 -95 30 -141t118 -46q42 0 76 27t43 71q0 118 -119 206l-235 190q-76 60 -117 104t-62 102q-22 59 -22 144q0 90 46 166t128 125q-56 43 -77 102t-21 152q0 84 42 160t127 123q86 47 211 47q105 0 185 -41q80 -42 124 -122t44 -194h-246q0 154 -127 154 q-51 0 -85 -29q-33 -29 -33 -86q0 -50 23 -84q23 -33 71 -69l272 -217q52 -39 90 -93t60 -116q20 -61 20 -123q0 -85 -40 -157t-120 -122q44 -34 78 -118t33 -157q-1 -81 -33 -146t-90 -111q-57 -46 -129 -70t-146 -23q-122 -1 -220 61t-134 183q-12 51 -12 148zM605 649 l-232 187q-75 -32 -75 -113q0 -36 17 -74q18 -38 46 -63l248 -203q70 41 70 117q-1 39 -21 80t-53 69z" unicode="§"/>
<glyph glyph-name="dieresis" horiz-adv-x="658" unicode="¨" d="M654 1309h-259v227h259v-227zM262 1309h-258v227h258v-227z"/>
<glyph glyph-name="copyright" horiz-adv-x="1647" unicode="©" d="M1047 623h180q-11 -94 -63 -166t-132 -111t-174 -39q-126 0 -226 61q-100 62 -154 168t-54 236t52 234t151 162q98 58 227 59q146 -1 246 -81t127 -224h-180q-11 76 -63 118t-132 42q-82 0 -139 -43q-57 -42 -86 -112q-29 -69 -29 -149q0 -82 30 -156t90 -120t140 -45 q77 1 132 47t57 119zM828 115q170 0 317 88q147 86 233 236t87 325q-1 174 -87 322t-233 234t-317 85q-176 1 -324 -85t-234 -233q-85 -148 -85 -323q0 -176 86 -326q85 -149 233 -236t324 -87zM828 1557q212 0 394 -106t288 -289q106 -182 106 -398q0 -217 -106 -402 q-106 -184 -288 -292t-394 -107q-216 0 -398 107q-182 108 -288 292t-105 402q0 217 106 399q105 182 287 288t398 106z"/>
<glyph glyph-name="ordfeminine" horiz-adv-x="559" unicode="ª" d="M189 1333h-160q0 112 53 168t205 56q154 0 199 -55t45 -148v-403q0 -50 12 -99h-164q-6 21 -6 66h-4q-20 -35 -62 -59q-42 -23 -88 -23q-100 0 -147 48t-47 155q1 73 33 117t72 66q40 20 145 66q47 18 67 36t19 44q0 9 -4 29q-10 49 -78 49q-54 0 -72 -29t-18 -84z M21 586v131h522v-131h-522zM357 1141v72q-58 -33 -97 -57t-53 -46t-14 -67q0 -44 18 -66t64 -22q53 0 67 38q15 38 15 107v41z"/>
<glyph glyph-name="guillemotleft" d="M832 127l-317 285v211l317 280v-225l-192 -160l192 -165v-226zM455 127l-313 285v211l313 280v-225l-188 -160l188 -165v-226z" unicode="«"/>
<glyph glyph-name="logicalnot" d="M721 211v375h-678v225h903v-600h-225z" unicode="¬"/>
<glyph glyph-name="registered" horiz-adv-x="1647" unicode="®" d="M665 819h249q82 0 120 27t39 105q0 70 -54 88t-144 18h-210v-238zM1012 690l203 -366h-191l-189 366h-170v-366h-163v864h408q160 0 235 -45q98 -66 98 -225q0 -208 -231 -228zM828 115q172 0 319 86t233 236q84 149 84 327q0 174 -85 322t-232 234t-319 85 q-176 1 -324 -85t-234 -234t-86 -322q0 -178 86 -328t234 -235q148 -86 324 -86zM828 -37q-216 0 -398 107q-182 108 -288 292t-105 402q-1 216 105 398t289 288q182 107 397 107q212 0 394 -107q182 -108 288 -290t106 -396q0 -217 -106 -402q-106 -184 -288 -292 t-394 -107z"/>
<glyph glyph-name="plusminus" d="M43 -29v220h903v-220h-903zM379 768v271h225v-271h342v-225h-342v-268h-225v268h-336v225h336z" unicode="±"/>
<glyph glyph-name="twosuperior" horiz-adv-x="559" unicode="²" d="M441 1039l-148 -140q-92 -91 -92 -159h342v-129h-539q1 3 7 68q7 65 10 85q23 111 172 254l90 92q51 46 70 80q20 33 20 94q0 107 -86 107q-68 1 -85 -45t-17 -129h-168v22q1 113 49 199t227 86q118 -2 189 -66t71 -170q0 -134 -112 -249z"/>
<glyph glyph-name="threesuperior" horiz-adv-x="559" unicode="³" d="M189 1026v133q74 7 101 13t49 32t22 84q0 43 -31 70q-30 27 -70 27q-30 1 -51 -17t-24 -52v-64h-168q0 133 49 203q76 69 196 69q111 0 194 -63t83 -173q0 -69 -32 -123q-31 -55 -99 -63v-8q69 -6 108 -62t39 -155q0 -291 -280 -291q-167 0 -219 79t-52 191v52h168 q0 -2 2 -51t10 -76t30 -45t65 -17q62 -1 78 43t16 129q-1 83 -47 109t-137 26z"/>
<glyph glyph-name="acute" horiz-adv-x="658" unicode="´" d="M160 1276l190 291h312l-297 -291h-205z"/>
<glyph glyph-name="mu" d="M854 0h-245v170h-5q-57 -170 -174 -170q-31 0 -61 8v-389h-258v1035v489h258v-782q-1 -89 17 -140t87 -51q55 0 83 36t34 82t6 112v743h258v-1036v-107z" unicode="µ"/>
<glyph glyph-name="paragraph" horiz-adv-x="1073" unicode="¶" d="M721 -234v1035v483h-133v-1042v-476h-238v1035v10q-100 1 -172 45t-108 123t-37 180q1 195 103 279t300 84h609v-238h-84v-1042v-476h-240z"/>
<glyph glyph-name="periodcentered" horiz-adv-x="658" unicode="·" d="M461 637v-268h-265v268h265z"/>
<glyph glyph-name="cedilla" horiz-adv-x="658" unicode="¸" d="M70 -408l45 84q99 -33 172 -33q34 0 59 28t25 60q0 39 -37 56q-24 10 -49 10q-28 0 -84 -18l-41 38l119 183h105l-82 -127q41 16 75 16q70 1 117 -49t47 -123q0 -40 -18 -82q-78 -96 -220 -96q-102 0 -233 53z"/>
<glyph glyph-name="onesuperior" horiz-adv-x="559" unicode="¹" d="M301 611v628h-223v123q106 0 174 35t98 125h132v-911h-181z"/>
<glyph glyph-name="ordmasculine" horiz-adv-x="559" unicode="º" d="M25 586v131h510v-131h-510zM283 1557q119 0 174 -45q54 -44 66 -116q13 -73 16 -224q0 -128 -19 -199q-18 -70 -74 -104t-163 -34q-109 0 -165 34t-75 104q-18 70 -18 199q0 143 13 219q12 76 68 121t177 45zM193 1315v-233q0 -61 14 -92q15 -31 72 -31t71 31 q15 31 15 92v233q0 67 -16 93q-15 26 -70 26q-58 0 -72 -25t-14 -94z"/>
<glyph glyph-name="guillemotright" d="M531 127v226l190 174l-190 151v225l317 -280v-211zM151 127v226l195 174l-195 151v225l322 -280v-211z" unicode="»"/>
<glyph glyph-name="onequarter" horiz-adv-x="1456" unicode="¼" d="M236 611v628h-219v123q104 0 172 35t98 125h129v-911h-180zM388 0h-152l592 1034l266 463h146l-588 -1036zM1153 895h201v-579h86v-133h-86v-183h-182v183h-317v133zM988 316h184v374h-4z"/>
<glyph glyph-name="onehalf" horiz-adv-x="1456" unicode="½" d="M1342 432l-146 -137q-90 -90 -90 -162h342v-133h-543q3 18 5 44t7 57q4 31 9 53q24 117 172 254l86 92q54 47 74 80t20 94q0 56 -24 84t-66 27q-65 0 -82 -46q-16 -47 -16 -128h-172v24q0 65 14 123t76 107t188 49q118 -2 190 -65t72 -171q0 -132 -116 -246zM219 611v628 h-219v123q104 0 172 35t99 125h129v-911h-181zM342 0h-149l592 1034l260 463h151l-587 -1036z"/>
<glyph glyph-name="threequarters" horiz-adv-x="1456" unicode="¾" d="M185 1026v133q74 7 101 13t49 32t22 84q0 43 -31 70q-30 27 -70 27q-30 1 -51 -17t-25 -52v-64h-167q0 133 49 203q75 69 196 69q111 0 194 -63t83 -173q0 -69 -32 -123q-31 -55 -99 -63v-8q69 -6 109 -62q40 -55 40 -155q0 -291 -282 -291q-167 0 -219 79t-52 191v52 h168q0 -2 2 -51t10 -76t30 -45t65 -17q62 -1 78 43t16 129q0 83 -46 109t-138 26zM449 0h-156l588 1034l268 463h148l-590 -1036zM1172 895h200v-579h86v-133h-86v-183h-180v183h-317v133zM1008 316h184v374h-4z"/>
<glyph glyph-name="questiondown" d="M699 911h-255v261h255v-261zM643 47h246q0 -6 1 -21q1 -14 1 -22q0 -387 -393 -387q-116 0 -203 46t-134 131t-47 198q0 102 37 188t92 155t144 161q45 50 59 116t15 152h234q0 -94 -5 -137q-6 -86 -44 -153t-112 -162q-74 -94 -110 -164t-37 -156q0 -88 28 -127t87 -39 q51 0 78 18q26 19 38 48t16 70q5 40 9 85z" unicode="¿"/>
<glyph glyph-name="Agrave" horiz-adv-x="1073" unicode="À" d="M205 1948h313l189 -297h-205zM502 1039l-86 -428h242l-78 428q-11 52 -37 311h-4q-4 -34 -12 -110t-13 -114q-4 -40 -12 -87zM297 0h-301l244 1035l117 487h376l234 -1038l106 -484h-297l-73 383h-330z"/>
<glyph glyph-name="Aacute" horiz-adv-x="1073" unicode="Á" d="M369 1651l186 297h316l-299 -297h-203zM502 1039l-86 -428h242l-78 428q-11 52 -37 311h-4q-4 -34 -12 -110t-13 -114q-4 -40 -12 -87zM297 0h-301l244 1035l117 487h376l234 -1038l106 -484h-297l-73 383h-330z"/>
<glyph glyph-name="Acircumflex" horiz-adv-x="1073" unicode="Â" d="M387 1936h256l228 -291h-228l-125 166l-131 -166h-223zM502 1039l-86 -428h242l-78 428q-11 52 -37 311h-4q-4 -34 -12 -110t-13 -114q-4 -40 -12 -87zM297 0h-301l244 1035l117 487h376l234 -1038l106 -484h-297l-73 383h-330z"/>
<glyph glyph-name="Atilde" horiz-adv-x="1073" unicode="Ã" d="M776 1886h129q-41 -245 -235 -245q-35 0 -176 43q-63 20 -105 20q-92 0 -92 -75h-125q10 115 78 175q69 60 168 60q63 0 135 -27l45 -15t46 -12t38 -5q76 0 94 81zM502 1039l-86 -428h242l-78 428q-11 52 -37 311h-4q-4 -34 -12 -110t-13 -114q-4 -40 -12 -87zM297 0 h-301l244 1035l117 487h376l234 -1038l106 -484h-297l-73 383h-330z"/>
<glyph glyph-name="Adieresis" horiz-adv-x="1073" unicode="Ä" d="M862 1684h-254v229h254v-229zM469 1684h-258v229h258v-229zM502 1039l-86 -428h242l-78 428q-11 52 -37 311h-4q-4 -34 -12 -110t-13 -114q-4 -40 -12 -87zM297 0h-301l244 1035l117 487h376l234 -1038l106 -484h-297l-73 383h-330z"/>
<glyph glyph-name="Aring" horiz-adv-x="1073" unicode="Å" d="M539 1870q-53 0 -83 -36t-30 -83q0 -46 30 -80t83 -34q52 0 82 35q31 34 31 81t-30 82t-83 35zM539 1536q-97 0 -151 64t-54 151q0 89 54 153t151 64q95 0 149 -64t54 -153q0 -86 -54 -150q-53 -65 -149 -65zM502 1039l-86 -428h242l-78 428q-11 52 -37 311h-4 q-4 -34 -12 -110t-13 -114q-4 -40 -12 -87zM297 0h-301l244 1035l117 487h376l234 -1038l106 -484h-297l-73 383h-330z"/>
<glyph glyph-name="AE" horiz-adv-x="1549" unicode="Æ" d="M725 1236h-51l-215 -621h266v621zM725 0v387h-346l-125 -387h-301l393 1034l185 488h970v-221h-493v-389h461v-222h-461v-469h493v-221h-776z"/>
<glyph glyph-name="Ccedilla" horiz-adv-x="1073" unicode="Ç" d="M283 -408l39 84q99 -33 172 -33q34 0 60 29t26 59q0 37 -37 56q-24 10 -47 10q-24 0 -88 -18l-39 38l98 153q49 -7 105 -7l-62 -90q31 14 72 14q70 -1 122 -45t52 -117q0 -30 -26 -90q-77 -98 -218 -98q-108 0 -229 55zM721 539q-1 -37 -3 -100t-13 -118q-12 -54 -42 -92 t-83 -38q-88 0 -133 52t-57 122q-13 71 -13 157v424v52q1 137 39 232t164 95q48 1 76 -27t40 -70t18 -92q4 -50 7 -89h279q0 44 -8 117q-31 387 -412 393q-162 -1 -260 -49t-144 -136q-48 -88 -64 -198q-15 -111 -22 -293v-215q0 -179 15 -298q14 -118 62 -210 q49 -92 149 -144q63 -32 151 -44l19 30h111l-25 -37h8q218 0 314 131t106 363q2 14 4 41q2 28 4 41h-287z"/>
<glyph glyph-name="Egrave" d="M160 1948h313l189 -297h-203zM910 0h-787v1034v488h787v-221h-510v-389h471v-222h-471v-469h510v-221z" unicode="È"/>
<glyph glyph-name="Eacute" d="M326 1651l188 297h314l-297 -297h-205zM910 0h-787v1034v488h787v-221h-510v-389h471v-222h-471v-469h510v-221z" unicode="É"/>
<glyph glyph-name="Ecircumflex" d="M365 1936h256l228 -291h-228l-127 166l-129 -166h-223zM910 0h-787v1034v488h787v-221h-510v-389h471v-222h-471v-469h510v-221z" unicode="Ê"/>
<glyph glyph-name="Edieresis" d="M819 1684h-260v229h260v-229zM428 1684h-260v229h260v-229zM910 0h-787v1034v488h787v-221h-510v-389h471v-222h-471v-469h510v-221z" unicode="Ë"/>
<glyph glyph-name="Igrave" horiz-adv-x="514" unicode="Ì" d="M-70 1948h306l192 -297h-205zM396 0h-277v1034v488h277v-1038v-484z"/>
<glyph glyph-name="Iacute" horiz-adv-x="514" unicode="Í" d="M94 1651l189 297h309l-299 -297h-199zM396 0h-277v1034v488h277v-1038v-484z"/>
<glyph glyph-name="Icircumflex" horiz-adv-x="514" unicode="Î" d="M133 1936h246l238 -291h-234l-125 166l-129 -166h-223zM396 0h-277v1034v488h277v-1038v-484z"/>
<glyph glyph-name="Idieresis" horiz-adv-x="514" unicode="Ï" d="M580 1684h-254v229h254v-229zM189 1684h-251v229h251v-229zM396 0h-277v1034v488h277v-1038v-484z"/>
<glyph glyph-name="Eth" horiz-adv-x="1172" unicode="Ð" d="M400 1301v-436h139v-195h-139v-449h122q96 1 150 29t80 92t33 165q8 102 8 290q0 145 -9 237t-31 152t-62 87q-39 28 -103 28h-188zM123 865v657h584q161 0 243 -112t104 -261t23 -325q0 -206 -11 -342t-61 -258t-157 -183q-66 -41 -209 -41h-516v670h-160v195h160z"/>
<glyph glyph-name="Ntilde" horiz-adv-x="1172" unicode="Ñ" d="M828 1886h129q-47 -246 -236 -246q-30 0 -120 33q-52 19 -85 29t-65 10q-31 0 -55 -12q-9 -4 -16 -12t-14 -20t-12 -23t-8 -17h-127q9 118 78.5 177t169.5 59q65 0 137 -27q115 -30 134 -30q68 0 90 79zM785 1522h276v-1522h-289l-422 1143l18 -291l23 -852h-277v1522 h286l428 -1165l-17 258z"/>
<glyph glyph-name="Ograve" horiz-adv-x="1172" unicode="Ò" d="M258 1948h305l193 -297h-203zM383 946v-424q0 -139 40 -235t169 -96q92 -1 136 53t55 126q10 72 10 177v391q1 106 -11 186t-56 140t-134 61q-91 -1 -137 -53t-59 -124t-13 -159v-43zM99 666v215q5 173 21 287t64 203t147 137q98 48 261 49q164 0 260 -48 q98 -49 144 -137t61 -198t20 -293v-215q1 -182 -13 -300t-61 -210t-147 -142q-100 -51 -264 -51q-166 0 -267 51t-150 144q-48 92 -62 211t-14 297z"/>
<glyph glyph-name="Oacute" horiz-adv-x="1172" unicode="Ó" d="M424 1651l189 297h305l-293 -297h-201zM383 946v-424q0 -139 40 -235t169 -96q92 -1 136 53t55 126q10 72 10 177v391q1 106 -11 186t-56 140t-134 61q-91 -1 -137 -53t-59 -124t-13 -159v-43zM99 666v215q5 173 21 287t64 203t147 137q98 48 261 49q164 0 260 -48 q98 -49 144 -137t61 -198t20 -293v-215q1 -182 -13 -300t-61 -210t-147 -142q-100 -51 -264 -51q-166 0 -267 51t-150 144q-48 92 -62 211t-14 297z"/>
<glyph glyph-name="Ocircumflex" horiz-adv-x="1172" unicode="Ô" d="M461 1936h250l235 -291h-233l-125 166l-129 -166h-227zM383 946v-424q0 -139 40 -235t169 -96q92 -1 136 53t55 126q10 72 10 177v391q1 106 -11 186t-56 140t-134 61q-91 -1 -137 -53t-59 -124t-13 -159v-43zM99 666v215q5 173 21 287t64 203t147 137q98 48 261 49 q164 0 260 -48q98 -49 144 -137t61 -198t20 -293v-215q1 -182 -13 -300t-61 -210t-147 -142q-100 -51 -264 -51q-166 0 -267 51t-150 144q-48 92 -62 211t-14 297z"/>
<glyph glyph-name="Otilde" horiz-adv-x="1172" unicode="Õ" d="M828 1886h129q-47 -245 -236 -245q-25 0 -45 6t-75 26q-57 21 -89 30t-61 9q-31 0 -55 -12q-18 -10 -32 -36t-18 -36h-127q10 118 79 177t169 59q65 0 137 -27q115 -30 134 -30q68 0 90 79zM383 946v-424q0 -139 40 -235t169 -96q92 -1 136 53t55 126q10 72 10 177v391 q1 106 -11 186t-56 140t-134 61q-91 -1 -137 -53t-59 -124t-13 -159v-43zM99 666v215q5 173 21 287t64 203t147 137q98 48 261 49q164 0 260 -48q98 -49 144 -137t61 -198t20 -293v-215q1 -182 -13 -300t-61 -210t-147 -142q-100 -51 -264 -51q-166 0 -267 51t-150 144 q-48 92 -62 211t-14 297z"/>
<glyph glyph-name="Odieresis" horiz-adv-x="1172" unicode="Ö" d="M910 1684h-256v229h256v-229zM518 1684h-252v229h252v-229zM383 946v-424q0 -139 40 -235t169 -96q92 -1 136 53t55 126q10 72 10 177v391q1 106 -11 186t-56 140t-134 61q-91 -1 -137 -53t-59 -124t-13 -159v-43zM99 666v215q5 173 21 287t64 203t147 137q98 48 261 49 q164 0 260 -48q98 -49 144 -137t61 -198t20 -293v-215q1 -182 -13 -300t-61 -210t-147 -142q-100 -51 -264 -51q-166 0 -267 51t-150 144q-48 92 -62 211t-14 297z"/>
<glyph glyph-name="Oslash" horiz-adv-x="1172" unicode="Ø" d="M793 971l-389 -623q22 -79 61 -118q40 -39 127 -39q127 0 164 99q37 100 37 261v60v360zM383 553l382 611q-8 161 -173 161q-93 0 -139 -57t-58 -145q-12 -87 -12 -222v-61v-287zM1137 1510l-117 -189q21 -44 32 -97q12 -53 16 -107q5 -54 6 -116q2 -63 3 -120v-215 q1 -182 -13 -300t-61 -210t-147 -142q-100 -51 -264 -51q-92 0 -154 10t-112 34q-49 24 -90 65l-90 -148l-99 59l117 191q-65 140 -65 492v215q5 173 21 287t64 203t147 137q98 48 261 49q128 -1 208 -25t151 -98l86 141z"/>
<glyph glyph-name="Ugrave" horiz-adv-x="1172" unicode="Ù" d="M258 1948h305l193 -297h-203zM789 484v1038h276v-1038v-23q-1 -175 -43 -283t-145 -162t-285 -53q-184 -1 -288 53t-146 162t-43 283v1036v25h276v-1038q0 -94 12 -154q13 -60 57 -100t136 -39q121 0 157 76t36 217z"/>
<glyph glyph-name="Uacute" horiz-adv-x="1172" unicode="Ú" d="M424 1651l189 297h305l-293 -297h-201zM789 484v1038h276v-1038v-23q-1 -175 -43 -283t-145 -162t-285 -53q-184 -1 -288 53t-146 162t-43 283v1036v25h276v-1038q0 -94 12 -154q13 -60 57 -100t136 -39q121 0 157 76t36 217z"/>
<glyph glyph-name="Ucircumflex" horiz-adv-x="1172" unicode="Û" d="M461 1936h250l235 -291h-233l-125 166l-129 -166h-227zM789 484v1038h276v-1038v-23q-1 -175 -43 -283t-145 -162t-285 -53q-184 -1 -288 53t-146 162t-43 283v1036v25h276v-1038q0 -92 12 -153q13 -60 57 -100t136 -40q121 0 157 76t36 217z"/>
<glyph glyph-name="Udieresis" horiz-adv-x="1172" unicode="Ü" d="M910 1684h-256v229h256v-229zM518 1684h-252v229h252v-229zM789 484v1038h276v-1038v-23q-1 -175 -43 -283t-145 -162t-285 -53q-184 -1 -288 53t-146 162t-43 283v1036v25h276v-1038q0 -92 12 -153q13 -60 57 -100t136 -40q121 0 157 76t36 217z"/>
<glyph glyph-name="Yacute" horiz-adv-x="1073" unicode="Ý" d="M369 1651l186 297h316l-299 -297h-203zM309 1522l160 -401q50 -130 66 -232h4q8 55 22 99t36 101q23 56 34 87l137 346h301l-395 -877v-645h-283v645l-387 877h305z"/>
<glyph glyph-name="Thorn" horiz-adv-x="1073" unicode="Þ" d="M396 0h-277v1034v488h277v-322h295q83 0 150 -37t113 -100t69 -142q24 -79 24 -163q0 -106 -39 -198q-38 -93 -110 -152q-111 -92 -309 -92h-193v-316zM396 977v-439h149q100 0 153 56q52 54 52 187q0 85 -23 127t-69 56t-131 13h-131z"/>
<glyph glyph-name="germandbls" d="M703 885v-4q96 -26 137 -130t41 -294q0 -451 -229 -486q-112 0 -186 29v187q24 -17 50 -17q54 0 81 69q28 69 28 138v238q0 152 -143 157v191q53 6 76 14q24 8 38 37t13 92v121q0 58 -31 92q-31 35 -88 35q-76 0 -96 -66t-21 -163v-1037v-88h-258v1034v43q0 127 21 227 q20 100 104 177q84 76 254 76q126 0 208 -56t120 -144q36 -88 36 -185q0 -242 -155 -287z" unicode="ß"/>
<glyph glyph-name="agrave" d="M160 1567h313l189 -291h-203zM593 479v123q-70 -44 -127 -81t-92 -85t-35 -120t25 -109q26 -37 95 -37q83 0 108 64t26 168v77zM875 0h-246q-16 37 -16 119h-4q-95 -148 -232 -148q-157 1 -230 83t-73 258q0 92 30 157t82 108t108 70t168 72q72 32 104 66q33 33 33 82 q0 20 -6 45q-11 36 -39 48t-85 11q-56 0 -86 -19q-29 -19 -39 -55q-9 -36 -9 -94h-248q0 123 34 203q35 80 121 124q86 42 235 42q127 0 205 -30t114 -78t46 -102t10 -126l1 -678q0 -88 22 -158z" unicode="à"/>
<glyph glyph-name="aacute" d="M326 1276l188 291h314l-297 -291h-205zM593 479v123q-70 -44 -127 -81t-92 -85t-35 -120t25 -109q26 -37 95 -37q83 0 108 64t26 168v77zM875 0h-246q-16 37 -16 119h-4q-95 -148 -232 -148q-157 1 -230 83t-73 258q0 92 30 157t82 108t108 70t168 72q72 32 104 66 q33 33 33 82q0 20 -6 45q-11 36 -39 48t-85 11q-56 0 -86 -19q-29 -19 -39 -55q-9 -36 -9 -94h-248q0 123 34 203q35 80 121 124q86 42 235 42q127 0 205 -30t114 -78t46 -102t10 -126l1 -678q0 -88 22 -158z" unicode="á"/>
<glyph glyph-name="acircumflex" d="M365 1561h256l228 -297h-228l-127 166l-129 -166h-223zM593 479v123q-70 -44 -127 -81t-92 -85t-35 -120t25 -109q26 -37 95 -37q83 0 108 64t26 168v77zM875 0h-246q-16 37 -16 119h-4q-95 -148 -232 -148q-157 1 -230 83t-73 258q0 92 30 157t82 108t108 70t168 72 q72 32 104 66q33 33 33 82q0 20 -6 45q-11 36 -39 48t-85 11q-56 0 -86 -19q-29 -19 -39 -55q-9 -36 -9 -94h-248q0 123 34 203q35 80 121 124q86 42 235 42q127 0 205 -30t114 -78t46 -102t10 -126l1 -678q0 -88 22 -158z" unicode="â"/>
<glyph glyph-name="atilde" d="M729 1510h134q-24 -138 -90 -194t-144 -56q-19 0 -52 9t-70 21t-54 19q-52 16 -103 16q-95 0 -95 -75v-2h-125q9 116 78 178t169 63q67 0 133 -26q26 -9 49 -18q24 -8 45 -14q22 -5 41 -5q68 0 84 84zM593 479v123q-70 -44 -127 -81t-92 -85t-35 -120t25 -109 q26 -37 95 -37q83 0 108 64t26 168v77zM875 0h-246q-16 37 -16 119h-4q-95 -148 -232 -148q-157 1 -230 83t-73 258q0 92 30 157t82 108t108 70t168 72q72 32 104 66q33 33 33 82q0 20 -6 45q-11 36 -39 48t-85 11q-56 0 -86 -19q-29 -19 -39 -55q-9 -36 -9 -94h-248 q0 123 34 203q35 80 121 124q86 42 235 42q127 0 205 -30t114 -78t46 -102t10 -126l1 -678q0 -88 22 -158z" unicode="ã"/>
<glyph glyph-name="adieresis" d="M819 1309h-260v227h260v-227zM428 1309h-260v227h260v-227zM592 479v123q-70 -44 -126 -81t-92 -85t-36 -120t26 -109t95 -37q83 0 108 64t25 168v77zM875 0h-246q-16 37 -16 119h-4q-95 -148 -232 -148q-157 1 -230 83t-73 258q0 92 30 157t82 108t108 70t167 72 q73 31 105 65t32 83q0 20 -6 45q-10 36 -38 48t-85 11q-56 0 -86 -19q-29 -19 -39 -55t-10 -94h-248q0 123 34 203t122 124q86 42 235 42q127 0 205 -30t114 -78t46 -102t10 -126v-678q0 -88 23 -158z" unicode="ä"/>
<glyph glyph-name="aring" d="M494 1616q-54 0 -84 -35t-30 -82q0 -49 30 -85t84 -35q52 0 82 35q31 36 31 85q0 47 -31 82q-30 35 -82 35zM494 1284q-97 0 -152 64t-55 151q0 85 55 149t152 64t151 -64t54 -151q0 -88 -54 -150q-53 -63 -151 -63zM593 479v123q-70 -44 -127 -81t-92 -85t-35 -120 t25 -109q26 -37 95 -37q83 0 108 64t26 168v77zM875 0h-246q-16 37 -16 119h-4q-95 -148 -232 -148q-157 1 -230 83t-73 258q0 92 30 157t82 108t108 70t168 72q72 32 104 66q33 33 33 82q0 20 -6 45q-11 36 -39 48t-85 11q-56 0 -86 -19q-29 -19 -39 -55q-9 -36 -9 -94 h-248q0 123 34 203q35 80 121 124q86 42 235 42q127 0 205 -30t114 -78t46 -102t10 -126l1 -678q0 -88 22 -158z" unicode="å"/>
<glyph glyph-name="ae" horiz-adv-x="1403" unicode="æ" d="M836 723h225v117q1 78 -27 104t-79 27q-104 0 -119 -131v-117zM572 369v233q-26 -20 -81 -54q-55 -33 -87 -59t-53 -66t-21 -99q0 -82 24 -118t82 -36q72 0 104 48t32 151zM334 811h-264q0 90 29 174q29 98 121 145q92 48 216 48q170 0 293 -76q90 70 234 70 q168 0 262 -79q95 -80 100 -274v-297h-489v-102v-45q0 -91 23 -148t98 -57q98 0 104 113v104h268q1 -121 -31 -213t-114 -148t-227 -55q-98 1 -159 27t-116 94q-70 -121 -266 -121q-174 1 -262 73t-88 247q0 94 19 154q20 60 65 104q46 44 129 92q42 24 112 53q70 30 106 49 q36 20 60 50q23 31 23 80q0 57 -29 77t-90 21q-80 0 -102 -36q-21 -36 -25 -124z"/>
<glyph glyph-name="ccedilla" horiz-adv-x="844" unicode="ç" d="M164 -408l41 84q106 -33 172 -33q34 0 61 29t27 62q0 38 -37 53q-27 10 -51 10t-84 -18l-39 38l100 159q35 -5 74 -5q15 0 30 1l-67 -99q43 16 76 16q47 0 85 -23t61 -63q22 -40 22 -86q0 -38 -18 -82q-83 -96 -224 -96q-109 0 -229 53zM785 744v92q0 68 -20 127 q-19 59 -63 107t-112 75t-162 27q-169 0 -264 -91q-94 -90 -94 -313v-372q0 -114 24 -195q24 -80 70 -131t112 -75q36 -13 78 -19l15 24h108l-19 -28q163 7 241 92q86 93 86 276v109h-263v-108q-7 -91 -22 -129t-68 -42q-38 6 -59 24t-31 60q-10 44 -10 127q0 10 1 33 q1 22 1 35v264q0 137 16 197t82 61q84 0 90 -98v-129h263z"/>
<glyph glyph-name="egrave" d="M160 1567h313l189 -291h-203zM357 717h264v102q-3 88 -32 120q-28 32 -107 32q-81 0 -103 -47t-22 -156v-51zM99 453v295q0 424 378 424q174 0 261 -58t114 -163t27 -281v-156h-522v-166q0 -104 34 -141t103 -37q70 0 96 50t27 163h258q-1 -203 -87 -307t-274 -105 q-112 -1 -190 27t-128 85t-72 148q-25 91 -25 222z" unicode="è"/>
<glyph glyph-name="eacute" d="M326 1276l188 291h314l-297 -291h-205zM357 717h264v102q-3 88 -32 120q-28 32 -107 32q-81 0 -103 -47t-22 -156v-51zM99 453v295q0 424 378 424q174 0 261 -58t114 -163t27 -281v-156h-522v-166q0 -104 34 -141t103 -37q70 0 96 50t27 163h258q-1 -203 -87 -307 t-274 -105q-112 -1 -190 27t-128 85t-72 148q-25 91 -25 222z" unicode="é"/>
<glyph glyph-name="ecircumflex" d="M365 1561h256l228 -297h-228l-127 166l-129 -166h-223zM357 717h264v102q-3 88 -32 120q-28 32 -107 32q-81 0 -103 -47t-22 -156v-51zM99 453v295q0 424 378 424q174 0 261 -58t114 -163t27 -281v-156h-522v-166q0 -104 34 -141t103 -37q70 0 96 50t27 163h258 q-1 -203 -87 -307t-274 -105q-112 -1 -190 27t-128 85t-72 148q-25 91 -25 222z" unicode="ê"/>
<glyph glyph-name="edieresis" d="M819 1309h-260v227h260v-227zM428 1309h-260v227h260v-227zM357 717h264v102q-3 88 -32 120q-28 32 -107 32q-81 0 -103 -47t-22 -156v-51zM99 453v295q0 424 378 424q174 0 261 -58t114 -163t27 -281v-156h-522v-166q0 -104 34 -141t103 -37q70 0 96 50t27 163h258 q-1 -203 -87 -307t-274 -105q-112 -1 -190 27t-128 85t-73 148q-24 91 -24 222z" unicode="ë"/>
<glyph glyph-name="igrave" horiz-adv-x="514" unicode="ì" d="M-70 1567h306l192 -291h-205zM387 0h-258v1034v109h258v-1036v-107z"/>
<glyph glyph-name="iacute" horiz-adv-x="514" unicode="í" d="M94 1276l189 291h309l-299 -291h-199zM387 0h-258v1034v109h258v-1036v-107z"/>
<glyph glyph-name="icircumflex" horiz-adv-x="514" unicode="î" d="M115 1561h246l235 -298h-231l-129 167l-125 -167h-226zM387 0h-258v1034v109h258v-1036v-107z"/>
<glyph glyph-name="idieresis" horiz-adv-x="514" unicode="ï" d="M580 1308h-254v228h254v-228zM189 1308h-251v228h251v-228zM387 0h-258v1034v109h258v-1036v-107z"/>
<glyph glyph-name="eth" d="M666 1571l90 -90l-82 -59q49 -36 87 -98q37 -62 63 -163q26 -99 40 -257t15 -377q-3 -211 -33 -326t-113 -173q-84 -58 -251 -57q-160 0 -246 52q-86 51 -118 157t-32 291v60q0 179 9 285t45 187t118 125t224 44q73 0 107 -8q-23 59 -43 88q-19 29 -56 45l-129 -93 l-86 97l55 37q-43 9 -170 16v164q116 0 202 -7t173 -30zM346 752v-379q0 -83 8 -123t38 -60q29 -20 90 -20q59 0 88 20t38 62t9 121v379q-1 109 -23 164t-112 55t-113 -55t-23 -164z" unicode="ð"/>
<glyph glyph-name="ntilde" d="M729 1510h134q-24 -138 -90 -194t-144 -56q-35 0 -122 31q-102 34 -157 34q-96 0 -96 -78h-124q9 118 78 179q69 62 169 63q67 0 133 -26q109 -37 135 -37q68 0 84 84zM373 1143l4 -116q72 145 240 145q116 0 187 -71t71 -220v-881h-258v764q0 94 -22 139t-93 48 q-129 0 -129 -216v-735h-258v1144z" unicode="ñ"/>
<glyph glyph-name="ograve" d="M160 1567h313l189 -291h-203zM498 -29q-129 0 -208 33q-78 32 -120 100q-41 67 -56 168q-15 102 -15 259q2 185 11 287t46 184q36 82 118 126t224 44q139 0 219 -44q79 -44 115 -125t44 -184q9 -103 9 -288q0 -159 -14 -260q-15 -99 -55 -167t-116 -100t-202 -33z M357 752v-379q0 -79 9 -121q8 -42 38 -62t94 -20q60 0 88 20t35 61q8 41 8 122v379q0 109 -22 164q-21 55 -109 55q-94 0 -118 -55t-23 -164z" unicode="ò"/>
<glyph glyph-name="oacute" d="M326 1276l188 291h314l-297 -291h-205zM498 -29q-129 0 -208 33q-78 32 -120 100q-41 67 -56 168q-15 102 -15 259q2 185 11 287t46 184q36 82 118 126t224 44q139 0 219 -44q79 -44 115 -125t44 -184q9 -103 9 -288q0 -159 -14 -260q-15 -99 -55 -167t-116 -100 t-202 -33zM357 752v-379q0 -79 9 -121q8 -42 38 -62t94 -20q60 0 88 20t35 61q8 41 8 122v379q0 109 -22 164q-21 55 -109 55q-94 0 -118 -55t-23 -164z" unicode="ó"/>
<glyph glyph-name="ocircumflex" d="M365 1561h256l227 -297h-227l-127 166l-129 -166h-223zM498 -29q-129 0 -208 33q-78 32 -120 100q-41 67 -56 168q-15 102 -15 259q2 185 11 287t46 184q36 82 118 126t224 44q139 0 219 -44q79 -44 115 -125t44 -184q9 -103 9 -288q0 -159 -14 -260q-15 -99 -55 -167 t-116 -100t-202 -33zM357 752v-379q0 -79 9 -121q8 -42 38 -62t94 -20q60 0 88 20t35 61q8 41 8 122v379q0 109 -22 164q-21 55 -109 55q-94 0 -118 -55t-23 -164z" unicode="ô"/>
<glyph glyph-name="otilde" d="M729 1510h133q-22 -138 -88 -194t-145 -56q-19 0 -52 9t-70 21t-54 19q-52 16 -103 16q-96 0 -96 -78h-125q10 118 79 179q69 62 169 63q67 0 133 -26q26 -9 49 -18q24 -8 45 -14q22 -5 41 -5q68 0 84 84zM498 -29q-129 0 -208 33q-78 32 -120 100q-41 67 -56 168 q-15 102 -15 259q2 185 11 287t46 184q36 82 118 126t224 44q139 0 219 -44q79 -44 115 -125t44 -184q9 -103 9 -288q0 -159 -14 -260q-15 -99 -55 -167t-116 -100t-202 -33zM357 752v-379q0 -79 9 -121q8 -42 38 -62t94 -20q60 0 88 20t35 61q8 41 8 122v379q0 109 -22 164 q-21 55 -109 55q-94 0 -118 -55t-23 -164z" unicode="õ"/>
<glyph glyph-name="odieresis" d="M819 1309h-259v227h259v-227zM429 1309h-261v227h260zM498 -29q-129 0 -208 33q-78 32 -120 100q-41 67 -56 168q-15 102 -15 259q2 185 11 287t46 184q36 82 118 126t224 44q139 0 219 -44q79 -44 115 -125t44 -184q9 -103 9 -288q0 -159 -14 -260q-15 -99 -55 -167 t-116 -100t-202 -33zM357 752v-379q0 -79 9 -121q8 -42 38 -62t94 -20q60 0 88 20t35 61q8 41 8 122v379q0 109 -22 164q-21 55 -109 55q-94 0 -118 -55t-23 -164z" unicode="ö"/>
<glyph glyph-name="divide" d="M621 13h-256v229h256v-229zM621 764h-256v234h256v-234zM43 391v228h903v-228h-903z" unicode="÷"/>
<glyph glyph-name="oslash" d="M357 445l268 395q-3 62 -31 96t-96 35q-94 0 -118 -55t-23 -164v-307zM776 1090l103 157l100 -67l-131 -203q25 -71 31 -171t6 -275q0 -159 -14 -260q-15 -99 -55 -167t-116 -100t-202 -33q-189 0 -279 70l-104 -160l-111 72l142 197q-47 123 -47 381q2 185 11 287 t46 184q36 82 118 126t224 44q181 0 278 -82zM629 686l-268 -395q6 -65 36 -93t101 -28q60 0 88 20t35 61q8 41 8 122v313z" unicode="ø"/>
<glyph glyph-name="ugrave" d="M160 1567h313l189 -291h-203zM609 0v170h-5q-34 -103 -92 -151t-151 -48q-103 -1 -157 33t-74 99q-19 64 -19 168v872h258v-782q-1 -89 17 -140t87 -51q55 0 83 36t34 82t6 112v743h258v-1036v-107h-245z" unicode="ù"/>
<glyph glyph-name="uacute" d="M326 1276l188 291h314l-297 -291h-205zM609 0v170h-5q-34 -103 -92 -151t-151 -48q-103 -1 -157 33t-74 99q-19 64 -19 168v872h258v-782q-1 -89 17 -140t87 -51q55 0 83 36t34 82t6 112v743h258v-1036v-107h-245z" unicode="ú"/>
<glyph glyph-name="ucircumflex" d="M365 1579h256l227 -291h-227l-127 166l-129 -166h-223zM609 0v170h-5q-34 -103 -92 -151t-151 -48q-103 -1 -157 33t-74 99q-19 64 -19 168v872h258v-782q-1 -89 17 -140t87 -51q55 0 83 36t34 82t6 112v743h258v-1036v-107h-245z" unicode="û"/>
<glyph glyph-name="udieresis" d="M819 1308h-260v228h260v-228zM429 1308h-261v228h260zM609 0v170h-5q-34 -103 -92 -151t-151 -48q-103 -1 -157 33t-74 99q-19 64 -19 168v872h258v-782q-1 -89 17 -140t87 -51q55 0 83 36t34 82t6 112v743h258v-1036v-107h-245z" unicode="ü"/>
<glyph glyph-name="yacute" horiz-adv-x="844" unicode="ý" d="M255 1276l190 291h311l-296 -291h-205zM-16 1143h278l111 -608q8 -43 15 -96t12 -104q6 -51 12 -105h4q24 198 43 297l109 616h268l-244 -1036l-33 -124q-37 -151 -48 -191t-39 -88t-79 -74t-137 -26q-53 0 -126 13v205q10 0 32 -2t39 -3q82 0 82 54q0 65 -24 146 l-250 1034z"/>
<glyph glyph-name="thorn" d="M871 764v-416q-8 -167 -65 -272t-206 -105q-83 4 -137 34t-102 114h-4v-500h-246v1035v868h258v-500h4q38 84 90 117t137 33q133 -3 199 -93t72 -315zM369 717v-344q0 -203 125 -203q103 0 119 199v379l-5 80q-4 48 -14 78t-36 48q-24 18 -68 17q-79 -1 -100 -73 t-21 -181z" unicode="þ"/>
<glyph glyph-name="OE" horiz-adv-x="1647" unicode="Œ" d="M1077 221h494v-221h-756v146h-4q-34 -57 -85 -98t-101 -63t-80 -22q-143 -1 -233 65t-132 174q-44 108 -58 229q-13 122 -13 276q0 32 1 90q1 59 1 84q0 276 95 476t337 200q83 0 157 -38t115 -122h4v4l5 -4v125h747v-221h-494v-389h461v-222h-461v-469zM799 461v621 q0 243 -195 243q-92 -5 -140 -79t-63 -175q-14 -101 -14 -219v-104v-99q1 -116 15 -216t61 -171t137 -71q83 -1 127 33t58 92t14 145z"/>
<glyph glyph-name="oe" horiz-adv-x="1403" unicode="œ" d="M334 752v-154v-162q0 -114 12 -171t36 -74q25 -18 73 -21q67 0 95 46t29 186v51v336q-1 103 -27 143t-97 39q-65 0 -93 -49t-28 -170zM1342 731v-209h-498v-118q0 -138 24 -186t89 -48q120 0 120 135v82h265q0 -149 -40 -240q-40 -90 -130 -133t-238 -43q-62 -1 -122 27 t-101 78q-51 -54 -117 -80t-125 -25q-167 -1 -253 57t-116 176t-30 327q0 179 8 285t46 186q38 82 120 126t225 44q70 0 126 -26t116 -89q27 37 71 64t97 41t110 14q82 0 149 -28t105 -83q99 -132 99 -334zM840 723h237v74q-1 92 -27 133t-93 41q-75 0 -96 -57t-21 -146v-45 z"/>
<glyph glyph-name="circumflex" horiz-adv-x="658" unicode="ˆ" d="M201 1600h254l227 -291h-227l-125 166l-130 -166h-225z"/>
<glyph glyph-name="tilde" horiz-adv-x="658" unicode="˜" d="M563 1549h136q-44 -244 -238 -244q-46 0 -174 41q-63 20 -104 20q-93 0 -93 -73h-127q9 113 79 173t171 60q65 0 133 -25q20 -7 45 -15t46 -12t36 -5q77 0 90 80z"/>
<glyph glyph-name="emdash" d="M996 522h-1004v222h1004v-222z" unicode="–"/>
<glyph glyph-name="endash" horiz-adv-x="1975" unicode="—" d="M1991 522h-1028h-979v222h1024h983v-222z"/>
<glyph glyph-name="quoteleft" horiz-adv-x="514" unicode="‘" d="M372 1553v-90q-128 -20 -128 -199h128v-262h-239v241q0 139 53 213t186 97z"/>
<glyph glyph-name="quotedblleft" d="M803 1553v-90q-65 -9 -97 -57t-32 -142h129v-262h-244v241q-1 91 23 154t77 101t144 55zM408 1553v-90q-62 -10 -94 -56t-31 -143h125v-262h-244v241q0 139 54 213t190 97z" unicode="“"/>
<glyph glyph-name="quotedblright" d="M180 971v90q66 11 98 55t31 140h-129v266h248v-242q0 -91 -23 -154q-23 -62 -77 -101t-148 -54zM575 971v90q132 19 132 195h-132v266h244v-242q0 -140 -54 -213t-190 -96z" unicode="”"/>
<glyph glyph-name="dagger" d="M369 856h-307v226h307v475h260v-475h289v-226h-289v-1034v-134h-260v1031v137z" unicode="†"/>
<glyph glyph-name="daggerdbl" d="M369 154h-312v229h311v469h-311v225h312v480h260v-480h301v-225h-301v-469h301v-229h-301v-478h-260v478z" unicode="‡"/>
<glyph glyph-name="ellipsis" horiz-adv-x="1975" unicode="…" d="M1788 0h-266v271h266v-271zM1123 0h-269v271h269v-271zM452 0h-267v271h267v-271z"/>
<glyph glyph-name="perthousand" horiz-adv-x="2208" unicode="‰" d="M486 -37h-148l455 1035l227 520h144l-453 -1039zM342 1342q-56 0 -82 -26q-25 -25 -31 -68t-6 -127q0 -85 6 -129t31 -70q26 -27 82 -27q56 1 81 27t31 70t5 129q1 84 -5 127t-31 68q-25 26 -81 26zM342 1493q137 0 205 -49t86 -127q19 -77 19 -196t-19 -197 q-18 -78 -86 -127t-205 -49q-136 0 -204 49t-86 127q-19 78 -19 197t19 197q18 78 86 126q68 49 204 49zM1874 594q-54 0 -79 -26t-31 -70t-5 -129q-1 -85 5 -128t31 -69t79 -26t78 26t29 69t5 128q0 86 -5 130q-5 43 -29 69t-78 26zM1870 740q140 0 208 -50t86 -126 q18 -77 19 -195q-1 -117 -19 -194t-86 -126t-208 -49q-136 0 -204 50t-85 126q-18 76 -18 193q0 118 18 195t86 126q67 50 203 50zM1155 594q-54 0 -79 -25q-24 -26 -30 -70q-5 -44 -5 -130q0 -85 5 -128q6 -43 30 -69q25 -26 79 -26q55 0 79 26t30 69t6 128t-6 129t-30 70 t-79 26zM1153 740q138 0 206 -50t86 -125q18 -76 18 -196q0 -89 -8 -149t-38 -111q-30 -50 -94 -79q-63 -30 -170 -30q-137 0 -203 49t-84 125t-18 195q0 120 18 196q18 77 84 126t203 49z"/>
<glyph glyph-name="guilsinglleft" horiz-adv-x="514" unicode="‹" d="M408 127l-309 285v211l309 280v-225l-188 -151l188 -174v-226z"/>
<glyph glyph-name="guilsinglright" horiz-adv-x="514" unicode="›" d="M106 127v226l187 165l-187 160v225l318 -280v-211z"/>
<glyph glyph-name="trademark" horiz-adv-x="1686" unicode="™" d="M604 1522v-160h-235v-659h-160v659h-230v160h625zM1534 1522v-819h-162v659h-4l-213 -659h-94l-209 659h-4v-659h-162v819h265l163 -488l160 488h260z"/>
</font>
</defs>
</svg>
