<?xml version="1.0" encoding="UTF-8" standalone="no"?>
<!DOCTYPE svg  PUBLIC '-//W3C//DTD SVG 1.1//EN'  'http://www.w3.org/Graphics/SVG/1.1/DTD/svg11.dtd'>
<svg xmlns="http://www.w3.org/2000/svg">
<defs>
<font id="Titillium-Bold" horiz-adv-x="560">
<font-face underline-position="-80" font-weight="700" descent="-200" panose-1="0 0 8 0 0 0 0 0 0 0" units-per-em="1000" unicode-range="U+0020-25CA" bbox="-224 -241 1057 945" x-height="500" underline-thickness="30" font-family="Titillium Bd" ascent="800" cap-height="680"/>
<missing-glyph horiz-adv-x="1000"/>
<glyph glyph-name=".notdef" horiz-adv-x="1000"/>
<glyph glyph-name=".null" horiz-adv-x="0"/>
<glyph glyph-name="nonmarkingreturn" horiz-adv-x="333"/>
<glyph glyph-name="space" horiz-adv-x="220" unicode=" "/>
<glyph glyph-name="exclam" horiz-adv-x="280" unicode="!" d="M81 250l-13 430h145l-14 -430h-118zM68 0v161h144v-161h-144z"/>
<glyph glyph-name="quotedbl" horiz-adv-x="411" unicode='&quot;' d="M178 440h-118l-5 240h129zM350 440h-118l-4 240h129z"/>
<glyph glyph-name="numbersign" d="M332 261v126h-104v-126h104zM544 149h-96v-149h-116v149h-104v-149h-116v149h-96v112h96v126h-96v112h96v161h116v-161h104v161h116v-161h96v-112h-96v-126h96v-112z" unicode="#"/>
<glyph glyph-name="dollar" d="M375 190q0 24 -13.5 39.5t-48.5 29.5l-19 -153q81 9 81 84zM185 485q0 -24 15 -39t58 -31l17 139q-90 -4 -90 -69zM495 646l-11 -106q-73 8 -135 12l-20 -161q104 -33 141.5 -72.5t37.5 -119.5q0 -104 -63 -157.5t-165 -53.5h-1l-15 -118q-74 3 -74 7l14 116 q-32 4 -68 10t-56 11l-20 4l13 104q79 -11 146 -15l22 174q-103 31 -146 75t-43 120q0 99 60 147.5t165 48.5h13l18 138h74l-18 -144q30 -3 63 -8t51 -8z" unicode="$"/>
<glyph glyph-name="percent" d="M404 134q0 -36 4.5 -51t17.5 -15t17.5 15t4.5 51t-4.5 50.5t-17.5 14.5t-17.5 -14.5t-4.5 -50.5zM426 279q120 0 120 -145q0 -146 -120 -146t-120 146q0 145 120 145zM112 527q0 -36 4.5 -51t17.5 -15t17.5 15t4.5 51t-4.5 50.5t-17.5 14.5t-17.5 -14.5t-4.5 -50.5z M134 672q120 0 120 -145q0 -146 -120 -146t-120 146q0 145 120 145zM125 -8l235 707l73 -26l-235 -705z" unicode="%"/>
<glyph glyph-name="ampersand" horiz-adv-x="701" unicode="&amp;" d="M247 531q0 -40 45 -88l17 -18q41 30 58 53.5t17 56.5q0 63 -68 63q-69 0 -69 -67zM287 108q40 0 78 11t53 29l-173 173q-74 -36 -74 -114q0 -99 116 -99zM316 712q98 0 151 -41.5t53 -120.5q0 -65 -30 -106t-107 -95l98 -98q6 15 12 58t7 70l130 -3q-15 -116 -51 -203 l112 -98l-76 -87l-106 87q-35 -38 -89.5 -62.5t-115.5 -24.5q-146 0 -207.5 52.5t-61.5 155.5q0 81 34 127.5t108 75.5q-41 50 -53.5 81t-12.5 81q0 70 56 110.5t149 40.5z"/>
<glyph glyph-name="quotesingle" horiz-adv-x="239" unicode="&apos;" d="M60 440l-4 240h129l-7 -240h-118z"/>
<glyph glyph-name="parenleft" horiz-adv-x="308" unicode="(" d="M154 750h127q-11 -28 -26.5 -75t-42 -166.5t-26.5 -207.5t23.5 -194.5t47.5 -168.5l24 -63h-127q-5 8 -12.5 22t-27.5 59t-35.5 92t-28 116.5t-12.5 136.5t12 138t29 124t34 97t29 67z"/>
<glyph glyph-name="parenright" horiz-adv-x="308" unicode=")" d="M27 750h127q5 -9 12.5 -24.5t27.5 -64.5t35.5 -99t28 -122t12.5 -139t-12 -135.5t-29 -118.5t-34 -90.5t-29 -60.5l-12 -21h-127q11 25 26.5 68.5t42 156.5t26.5 201t-24 200.5t-48 180.5z"/>
<glyph glyph-name="asterisk" horiz-adv-x="425" unicode="*" d="M389 499h-123l38 -120l-73 -22l-41 121l-103 -79l-47 59l105 78l-102 73l46 63l101 -73l39 121l75 -25l-38 -122h123v-74z"/>
<glyph glyph-name="plus" d="M50 191v120h169v168h120v-168h171v-120h-171v-170h-120v170h-169z" unicode="+"/>
<glyph glyph-name="comma" horiz-adv-x="263" unicode="," d="M20 -123l50 260h148l-90 -260h-108z"/>
<glyph glyph-name="hyphen" horiz-adv-x="408" unicode="-" d="M56 205v122h296v-122h-296z"/>
<glyph glyph-name="period" horiz-adv-x="256" unicode="." d="M56 0v166h144v-166h-144z"/>
<glyph glyph-name="slash" horiz-adv-x="466" unicode="/" d="M31 8l288 710l118 -42l-288 -710z"/>
<glyph glyph-name="zero" d="M281 552q-62 0 -88.5 -50t-26.5 -176q0 -120 27 -169t88 -49t87 49t26 169q0 127 -26 176.5t-87 49.5zM280 672q127 0 191.5 -82t64.5 -264q0 -181 -64 -259.5t-192 -78.5t-192 78.5t-64 259.5q0 182 64.5 264t191.5 82z" unicode="0"/>
<glyph glyph-name="one" d="M74 515l218 145h126v-660h-138v504l-143 -92z" unicode="1"/>
<glyph glyph-name="two" d="M493 0h-428v117l141 143q75 77 104.5 118t29.5 85q0 49 -24.5 68t-83.5 19q-30 0 -69 -4t-63 -8l-24 -3l-7 107q98 30 198 30q111 0 163 -47.5t52 -141.5q0 -74 -32 -128t-116 -131l-115 -104h274v-120z" unicode="2"/>
<glyph glyph-name="three" d="M71 534l-9 102q92 36 192 36q127 0 179 -43.5t52 -138.5q0 -97 -77 -148q48 -26 68.5 -54t20.5 -89q0 -107 -53.5 -159t-171.5 -52q-44 0 -97.5 8.5t-85.5 17.5l-32 8l7 105q112 -19 188 -19q103 0 103 88q0 37 -26.5 59t-69.5 22h-133v114h133q33 0 58.5 28t25.5 62 q0 71 -99 71q-35 0 -78 -4.5t-69 -9.5z" unicode="3"/>
<glyph glyph-name="four" d="M320 0v109h-280v105l163 446h152l-177 -431h142v185h138v-185h63v-120h-63v-109h-138z" unicode="4"/>
<glyph glyph-name="five" d="M87 660h403v-120h-295l-17 -143q62 24 118 24q214 0 214 -199q0 -112 -59 -173t-167 -61q-46 0 -104.5 9t-93.5 19l-36 9l15 102q121 -19 202 -19q49 0 75 26t26 73q0 50 -22 72t-70 22q-31 0 -62.5 -4.5t-47.5 -8.5l-15 -4l-82 19z" unicode="5"/>
<glyph glyph-name="six" d="M291 303q-24 0 -52.5 -5.5t-45.5 -11.5l-17 -5q0 -173 112 -173q48 0 74 26.5t26 74.5q0 94 -97 94zM508 643l-12 -106q-102 15 -186 15q-66 0 -99.5 -41.5t-33.5 -112.5l21 6q21 6 52.5 12.5t52.5 6.5q113 0 170 -52t57 -162q0 -109 -64 -165t-178 -56q-129 0 -191 88.5 t-62 250.5q0 182 71 263.5t204 81.5q37 0 86.5 -7t80.5 -15z" unicode="6"/>
<glyph glyph-name="seven" d="M69 537v123h422v-156l-235 -516l-128 36l225 481v32h-284z" unicode="7"/>
<glyph glyph-name="eight" d="M280 548q-45 0 -69 -20t-24 -58q0 -44 49 -78h88q49 34 49 78q0 78 -93 78zM278 112q105 0 105 88q0 52 -59 75h-88q-60 -23 -60 -75q0 -88 102 -88zM278 672q109 0 176 -48t67 -133q0 -58 -14 -87t-58 -64q44 -37 63 -70t19 -91q0 -98 -70 -144.5t-183 -46.5 q-250 0 -250 180q0 64 19.5 99.5t63.5 72.5q-42 34 -57 66.5t-15 85.5q0 85 65 132.5t174 47.5z" unicode="8"/>
<glyph glyph-name="nine" d="M267 360q24 0 52.5 6t45.5 12l17 5q0 169 -112 169q-48 0 -74 -26.5t-26 -74.5q0 -91 97 -91zM50 17l12 106q102 -15 186 -15q133 0 133 162l-21 -7q-21 -7 -52.5 -15t-52.5 -8q-109 0 -168 53t-59 158q0 104 65 162.5t177 58.5q127 0 190 -88.5t63 -249.5 q0 -188 -70 -267t-205 -79q-37 0 -86.5 7t-80.5 15z" unicode="9"/>
<glyph glyph-name="colon" horiz-adv-x="256" unicode=":" d="M56 0v166h144v-166h-144zM56 289v166h144v-166h-144z"/>
<glyph glyph-name="semicolon" horiz-adv-x="279" unicode=";" d="M69 289v166h144v-166h-144zM77 137h148l-90 -260h-108z"/>
<glyph glyph-name="less" d="M472 353l-261 -99l261 -108v-136l-406 186v110l406 183v-136z" unicode="&lt;"/>
<glyph glyph-name="equal" d="M58 87v121h444v-121h-444zM58 295v121h444v-121h-444z" unicode="="/>
<glyph glyph-name="greater" d="M349 254l-261 99v136l406 -183v-110l-406 -186v136z" unicode="&gt;"/>
<glyph glyph-name="question" horiz-adv-x="437" unicode="?" d="M119 0v161h144v-161h-144zM405 528q0 -70 -15.5 -105.5t-66.5 -73.5q-49 -37 -62 -57t-13 -44v-31h-107q-31 34 -31 91q0 36 72 94q55 44 69.5 63.5t14.5 47.5q0 59 -85 59q-30 0 -66 -4t-57 -8l-21 -4l-7 101q86 35 170 35q108 0 156.5 -39t48.5 -125z"/>
<glyph glyph-name="at" horiz-adv-x="973" unicode="@" d="M481 118q38 0 90 25q-6 36 -6 106v123q-42 10 -61 10q-52 0 -68.5 -29t-16.5 -102q0 -133 62 -133zM944 305v-8q0 -154 -48.5 -225.5t-144.5 -71.5q-29 0 -53.5 6t-38.5 14t-24 16t-13 14l-4 6q-80 -56 -148 -56q-94 0 -140.5 58.5t-46.5 192.5q0 127 43.5 188t147.5 61 q16 0 39 -6t37 -12l15 -7v13h134v-179q0 -49 0.5 -78t2.5 -53.5t5 -35.5t9.5 -19t13.5 -9.5t19 -1.5q32 0 46.5 39t14.5 146v9q0 160 -73.5 232.5t-233.5 72.5q-161 0 -246 -92t-85 -258q0 -185 76 -268.5t255 -83.5l143 9l5 -117q-90 -10 -148 -10q-115 0 -198 23 t-144.5 76.5t-92 145.5t-30.5 225q0 231 125 349.5t340 118.5q219 0 330 -108.5t111 -315.5z"/>
<glyph glyph-name="A" horiz-adv-x="602" unicode="A" d="M277 566l-69 -323h186l-69 323h-48zM17 0l153 680h262l153 -680h-138l-27 123h-238l-27 -123h-138z"/>
<glyph glyph-name="B" horiz-adv-x="609" unicode="B" d="M334 562h-122v-162h123q78 0 78 82q0 80 -79 80zM338 284h-126v-166h126q45 0 66.5 18t21.5 66q0 82 -88 82zM74 680h267q106 0 159 -42.5t53 -137.5q0 -57 -17 -90.5t-58 -59.5q45 -19 66.5 -55t21.5 -100q0 -99 -58 -147t-163 -48h-271v680z"/>
<glyph glyph-name="C" horiz-adv-x="543" unicode="C" d="M502 124l3 -113q-106 -23 -198 -23q-78 0 -129 21t-80 67t-40 108t-11 156q0 197 55.5 274.5t204.5 77.5q86 0 199 -27l-4 -110q-99 15 -175 15q-55 0 -83 -17.5t-41.5 -66.5t-13.5 -146q0 -139 27.5 -184.5t114.5 -45.5q78 0 171 14z"/>
<glyph glyph-name="D" horiz-adv-x="638" unicode="D" d="M450 353q0 62 -4 96t-19 62t-44.5 38.5t-79.5 10.5h-91v-440h91q40 0 67 10.5t42.5 27.5t24 48.5t11 63.5t2.5 83zM303 0h-229v680h229q88 0 145 -18.5t88.5 -61t43.5 -100t12 -147.5q0 -94 -11 -154.5t-41.5 -108t-88.5 -69t-148 -21.5z"/>
<glyph glyph-name="E" horiz-adv-x="554" unicode="E" d="M74 0v680h440v-120h-302v-159h242v-118h-242v-163h302v-120h-440z"/>
<glyph glyph-name="F" horiz-adv-x="531" unicode="F" d="M74 0v680h434v-120h-296v-200h242v-120h-242v-240h-138z"/>
<glyph glyph-name="G" horiz-adv-x="611" unicode="G" d="M357 244v120h198v-353q-143 -23 -232 -23q-159 0 -218.5 85t-59.5 267q0 188 62 270t211 82q47 0 106 -7t95 -14l36 -7l-4 -107q-120 13 -211 13q-62 0 -93 -18t-45.5 -66.5t-14.5 -145.5q0 -138 29 -185t120 -47l83 4v132h-62z"/>
<glyph glyph-name="H" horiz-adv-x="677" unicode="H" d="M465 0v282h-253v-282h-138v680h138v-278h253v278h138v-680h-138z"/>
<glyph glyph-name="I" horiz-adv-x="286" unicode="I" d="M74 0v680h138v-680h-138z"/>
<glyph glyph-name="J" horiz-adv-x="302" unicode="J" d="M232 680l1 -565q0 -109 -48.5 -147t-165.5 -38v120q40 0 58 15t18 56v559h137z"/>
<glyph glyph-name="K" horiz-adv-x="593" unicode="K" d="M418 0l-114 271l-92 -10v-261h-138v680h138v-299l92 10l112 289h157l-148 -341l152 -339h-159z"/>
<glyph glyph-name="L" horiz-adv-x="472" unicode="L" d="M461 0h-387v680h138v-558h249v-122z"/>
<glyph glyph-name="M" horiz-adv-x="858" unicode="M" d="M74 0v680h235l120 -496l120 496h235v-680h-138v526h-15l-133 -496h-138l-133 496h-15v-526h-138z"/>
<glyph glyph-name="N" horiz-adv-x="693" unicode="N" d="M74 0v680h233l164 -560h10v560h138v-680h-227l-170 560h-10v-560h-138z"/>
<glyph glyph-name="O" horiz-adv-x="652" unicode="O" d="M326 -12q-155 0 -218.5 84.5t-63.5 263.5q0 181 63.5 268.5t218.5 87.5t218.5 -87.5t63.5 -268.5q0 -179 -63.5 -263.5t-218.5 -84.5zM326 108q81 0 110.5 52.5t29.5 175.5q0 124 -30 180t-110 56t-110 -56t-30 -180q0 -123 29.5 -175.5t110.5 -52.5z"/>
<glyph glyph-name="P" horiz-adv-x="589" unicode="P" d="M212 316h111q103 0 103 128q0 63 -25 90.5t-78 27.5h-111v-246zM324 198h-112v-198h-138v680h250q242 0 242 -236q0 -119 -61.5 -182.5t-180.5 -63.5z"/>
<glyph glyph-name="Q" horiz-adv-x="652" unicode="Q" d="M326 108q81 0 110.5 52t29.5 176t-30 180t-110 56t-110 -56t-30 -180t29.5 -176t110.5 -52zM460 -156l-90 147q-10 -3 -44 -3q-156 0 -219 84t-63 264q0 181 63.5 268.5t218.5 87.5t218.5 -87.5t63.5 -268.5q0 -222 -105 -299l83 -134z"/>
<glyph glyph-name="R" horiz-adv-x="620" unicode="R" d="M437 454q0 50 -25.5 79t-73.5 29h-126v-216h128q49 0 73 30t24 78zM345 228h-133v-228h-138v680h264q240 0 240 -224q0 -133 -100 -196l97 -260h-151z"/>
<glyph glyph-name="S" horiz-adv-x="544" unicode="S" d="M493 665l-11 -109q-141 16 -199 16q-109 0 -109 -72q0 -32 27 -49t114 -45q112 -36 152 -76.5t40 -124.5q0 -107 -65 -162t-170 -55q-41 0 -98 8t-93 16l-36 7l14 107q134 -18 205 -18q106 0 106 88q0 32 -24.5 50t-97.5 39q-116 33 -163.5 78.5t-47.5 126.5 q0 102 62 152t170 50q40 0 96 -7t92 -13z"/>
<glyph glyph-name="T" horiz-adv-x="526" unicode="T" d="M13 558v122h500v-122h-180v-558h-138v558h-182z"/>
<glyph glyph-name="U" horiz-adv-x="654" unicode="U" d="M206 227q0 -119 121 -119t121 119v453h138v-450q0 -125 -64.5 -183.5t-194.5 -58.5t-194.5 58.5t-64.5 183.5v450h138v-453z"/>
<glyph glyph-name="V" horiz-adv-x="603" unicode="V" d="M442 680h145l-158 -680h-255l-158 680h145l118 -560h45z"/>
<glyph glyph-name="W" horiz-adv-x="930" unicode="W" d="M19 680h145l84 -562h15l122 562h160l122 -562h15l84 562h145l-130 -680h-209l-107 517l-107 -517h-209z"/>
<glyph glyph-name="X" horiz-adv-x="569" unicode="X" d="M162 680l126 -250l129 250h143l-196 -347l196 -333h-153l-126 235l-129 -235h-143l196 326l-196 354h153z"/>
<glyph glyph-name="Y" horiz-adv-x="557" unicode="Y" d="M348 275v-275h-138v275l-210 405h153l125 -271l125 271h153z"/>
<glyph glyph-name="Z" horiz-adv-x="532" unicode="Z" d="M41 560v120h450v-120l-284 -422v-18h284v-120h-450v119l284 423v18h-284z"/>
<glyph glyph-name="bracketleft" horiz-adv-x="355" unicode="[" d="M320 749v-120h-115v-632h115v-120h-252v872h252z"/>
<glyph glyph-name="backslash" horiz-adv-x="498" unicode="\" d="M466 13l-116 -49l-318 700l114 52z"/>
<glyph glyph-name="bracketright" horiz-adv-x="355" unicode="]" d="M35 629v120h252v-872h-252v120h115v632h-115z"/>
<glyph glyph-name="asciicircum" d="M383 313l-109 217l-113 -217h-140l194 347h114l194 -347h-140z" unicode="^"/>
<glyph glyph-name="underscore" horiz-adv-x="620" unicode="_" d="M96 -73h428v-114h-428v114z"/>
<glyph glyph-name="grave" horiz-adv-x="268" unicode="`" d="M23 753l252 -102l-30 -87l-262 74z"/>
<glyph glyph-name="a" horiz-adv-x="511" unicode="a" d="M311 220l-91 -8q-56 -5 -56 -56q0 -59 49 -59q19 0 43.5 4t39.5 8l15 4v107zM445 344v-208q2 -24 8 -33.5t25 -13.5l-4 -101q-51 0 -81.5 7t-61.5 28q-72 -35 -147 -35q-155 0 -155 164q0 80 43 113.5t132 39.5l107 8v31q0 31 -14 42.5t-45 11.5l-188 -8l-4 93 q107 29 203 29q97 0 139.5 -40t42.5 -128z"/>
<glyph glyph-name="b" horiz-adv-x="544" unicode="b" d="M257 108q67 0 90 32.5t23 116.5q0 135 -84 135q-18 0 -40.5 -3t-35.5 -7l-14 -3v-267q46 -4 61 -4zM304 512q105 0 153.5 -57.5t48.5 -197.5q0 -156 -56 -212.5t-193 -56.5q-21 0 -70 3.5t-87 6.5l-38 4v698h134v-215q64 27 108 27z"/>
<glyph glyph-name="c" horiz-adv-x="446" unicode="c" d="M249 512q26 0 66 -5.5t67 -10.5l27 -6l-4 -106q-79 8 -117 8q-69 0 -91.5 -29.5t-22.5 -107.5q0 -86 22.5 -116.5t92.5 -30.5l116 8l4 -107q-107 -21 -163 -21q-111 0 -159.5 62.5t-48.5 204.5q0 134 50 195.5t161 61.5z"/>
<glyph glyph-name="d" horiz-adv-x="549" unicode="d" d="M256 108q21 0 45 4t38 8l14 3v263q-55 10 -98 10q-81 0 -81 -144q0 -78 18 -111t64 -33zM487 700v-700h-133v21q-70 -33 -121 -33q-109 0 -152 63t-43 201q0 135 51.5 197.5t155.5 62.5q16 0 43 -3.5t46 -6.5l19 -4v202h134z"/>
<glyph glyph-name="e" horiz-adv-x="510" unicode="e" d="M171 295h173q0 60 -19 83.5t-67 23.5q-47 0 -66.5 -24.5t-20.5 -82.5zM273 106q36 0 82.5 2t74.5 4l28 3l2 -99q-115 -28 -208 -28q-113 0 -164 60t-51 195q0 269 221 269q218 0 218 -226l-10 -93h-294q1 -46 24.5 -66.5t76.5 -20.5z"/>
<glyph glyph-name="f" horiz-adv-x="357" unicode="f" d="M220 386v-386h-134v386h-54v114h54v22q0 108 32 149t114 41q15 0 43.5 -3t49.5 -7l21 -3l-2 -109q-44 2 -76 2q-28 0 -38 -16t-10 -55v-21h121v-114h-121z"/>
<glyph glyph-name="g" horiz-adv-x="534" unicode="g" d="M254 259q76 0 76 74q0 73 -76 73q-77 0 -77 -73q0 -74 77 -74zM286 -27l-90 7q-27 -27 -27 -57q0 -43 110 -43q101 0 101 50q0 27 -18 34.5t-76 8.5zM278 -230q-120 0 -180.5 30t-60.5 109q0 63 72 119q-37 25 -37 76q0 11 10 31t20 35l9 14q-68 49 -68 149 q0 91 57.5 134t152.5 43q20 0 45 -3t40 -7l16 -3l161 5v-107l-75 6q22 -34 22 -68q0 -100 -51 -138t-160 -38q-23 0 -41 4q-10 -26 -10 -39q0 -20 17 -26t80 -7q126 -1 172 -33.5t46 -117.5q0 -86 -66 -127t-171 -41z"/>
<glyph glyph-name="h" horiz-adv-x="553" unicode="h" d="M196 0h-134v700h134v-224q69 36 124 36q100 0 138 -59t38 -182v-271h-134v268q0 63 -15 93.5t-60 30.5q-20 0 -42.5 -4t-35.5 -8l-13 -4v-376z"/>
<glyph glyph-name="i" horiz-adv-x="258" unicode="i" d="M62 564v136h134v-136h-134zM62 0v500h134v-500h-134z"/>
<glyph glyph-name="j" horiz-adv-x="259" unicode="j" d="M63 564v136h134v-136h-134zM63 24v476h134v-477q0 -102 -35.5 -150.5t-142.5 -102.5l-53 99q45 30 63 47t26 40.5t8 67.5z"/>
<glyph glyph-name="k" horiz-adv-x="515" unicode="k" d="M196 0h-134v700h134v-398l51 9l99 189h150l-130 -237l137 -263h-151l-101 195l-55 -9v-186z"/>
<glyph glyph-name="l" horiz-adv-x="270" unicode="l" d="M68 0v700h134v-700h-134z"/>
<glyph glyph-name="m" horiz-adv-x="839" unicode="m" d="M196 0h-134v500h133v-28q69 40 118 40q81 0 125 -47q92 47 168 47q99 0 137.5 -57.5t38.5 -183.5v-271h-134v267q0 64 -14 94.5t-56 30.5q-18 0 -41 -5t-37 -9l-15 -5q4 -75 4 -114v-259h-134v257q0 74 -13 104.5t-57 30.5q-20 0 -42 -4.5t-35 -9.5l-12 -4v-374z"/>
<glyph glyph-name="n" horiz-adv-x="553" unicode="n" d="M196 0h-134v500h133v-28q68 40 125 40q100 0 138 -59t38 -182v-271h-134v267q0 64 -15 94.5t-60 30.5q-21 0 -43.5 -4.5t-35.5 -9.5l-12 -4v-374z"/>
<glyph glyph-name="o" horiz-adv-x="532" unicode="o" d="M266 102q53 0 73.5 36t20.5 113t-20.5 112t-73.5 35t-73.5 -35t-20.5 -112t20.5 -113t73.5 -36zM266 512q124 0 177 -68.5t53 -192.5q0 -263 -230 -263t-230 263q0 124 53 192.5t177 68.5z"/>
<glyph glyph-name="p" horiz-adv-x="544" unicode="p" d="M283 392q-18 0 -40 -5t-35 -10l-12 -5v-262q45 -6 73 -6q58 0 79.5 34t21.5 116q0 138 -87 138zM62 -210v710h133v-27q65 39 114 39q101 0 149 -60.5t48 -197.5q0 -153 -53 -209.5t-174 -56.5q-16 0 -37 2t-34 4l-12 2v-206h-134z"/>
<glyph glyph-name="q" horiz-adv-x="543" unicode="q" d="M286 396q-67 0 -90.5 -34.5t-23.5 -118.5q0 -135 85 -135q18 0 40.5 3t36.5 7l13 3v271q-37 4 -61 4zM239 -12q-105 0 -153 57.5t-48 197.5q0 157 55.5 213t192.5 56q26 0 74.5 -3t84.5 -7l36 -3v-709h-134v225q-64 -27 -108 -27z"/>
<glyph glyph-name="r" horiz-adv-x="372" unicode="r" d="M62 0v500h133v-53q84 50 160 65v-135q-39 -8 -79 -18.5t-60 -16.5l-20 -7v-335h-134z"/>
<glyph glyph-name="s" horiz-adv-x="472" unicode="s" d="M423 486l-2 -111q-124 16 -182 16q-41 0 -55.5 -9t-14.5 -31q0 -17 19.5 -24.5t91.5 -20.5q89 -16 123 -49t34 -107q0 -162 -201 -162q-33 0 -81 6t-79 12l-32 6l4 112q124 -16 175 -16q46 0 63.5 9.5t17.5 29.5q0 18 -18.5 27t-84.5 20q-89 15 -127 46t-38 108 q0 82 54 122.5t139 40.5q32 0 80.5 -6.5t80.5 -12.5z"/>
<glyph glyph-name="t" horiz-adv-x="364" unicode="t" d="M339 386h-123v-205q0 -30 1.5 -42.5t11 -21.5t29.5 -9l76 2l6 -107q-67 -15 -102 -15q-90 0 -123 40.5t-33 149.5v208h-59v114h59v139h134v-139h123v-114z"/>
<glyph glyph-name="u" horiz-adv-x="553" unicode="u" d="M357 500h134v-500h-133v28q-72 -40 -125 -40q-104 0 -140 57.5t-36 192.5v262h134v-264q0 -74 12 -101t58 -27q22 0 46 4.5t37 9.5l13 4v374z"/>
<glyph glyph-name="v" horiz-adv-x="498" unicode="v" d="M15 500h140l80 -386h28l84 386h136l-120 -500h-228z"/>
<glyph glyph-name="w" horiz-adv-x="772" unicode="w" d="M24 500h132l61 -386h24l76 376h138l76 -376h24l61 386h132l-95 -500h-210l-57 306l-57 -306h-210z"/>
<glyph glyph-name="x" horiz-adv-x="474" unicode="x" d="M14 500h143l80 -155l81 155h143l-142 -245l142 -255h-143l-81 153l-80 -153h-143l137 251z"/>
<glyph glyph-name="y" horiz-adv-x="500" unicode="y" d="M16 500h132l91 -386h23l91 386h132l-176 -710h-131l55 210h-94z"/>
<glyph glyph-name="z" horiz-adv-x="454" unicode="z" d="M41 380v120h371v-120l-210 -260h210v-120h-371v120l210 260h-210z"/>
<glyph glyph-name="braceleft" horiz-adv-x="361" unicode="{" d="M259 172q0 -14 -3.5 -57t-3.5 -60q0 -34 14.5 -53t56.5 -22v-114q-111 4 -156.5 43t-45.5 129q0 21 3.5 65.5t3.5 55.5q0 73 -112 102v104q112 26 112 94q0 13 -3.5 60t-3.5 67q0 95 45.5 133t158.5 42v-114q-43 -4 -58.5 -21t-15.5 -50q0 -17 3.5 -65.5t3.5 -62.5 q0 -63 -20.5 -90t-91.5 -44q70 -17 91.5 -47.5t21.5 -94.5z"/>
<glyph glyph-name="bar" horiz-adv-x="268" unicode="|" d="M67 -210v910h134v-910h-134z"/>
<glyph glyph-name="braceright" horiz-adv-x="361" unicode="}" d="M102 172q0 64 21.5 94.5t91.5 47.5q-71 17 -91.5 44t-20.5 90q0 14 3.5 62.5t3.5 65.5q0 33 -15.5 50t-58.5 21v114q113 -4 158.5 -42t45.5 -133q0 -20 -3.5 -67t-3.5 -60q0 -68 112 -94v-104q-112 -29 -112 -102q0 -11 3.5 -55.5t3.5 -65.5q0 -90 -45.5 -129t-156.5 -43 v114q42 3 56.5 22t14.5 53q0 17 -3.5 60t-3.5 57z"/>
<glyph glyph-name="asciitilde" d="M489 328l8 -107q-6 -6 -16.5 -14.5t-40 -22.5t-56.5 -14q-29 0 -108 22t-96 22q-21 0 -48.5 -10t-43.5 -20l-17 -9l-10 107q63 52 123 52q28 0 104 -22t99 -22q17 0 42.5 9.5t42.5 18.5z" unicode="~"/>
<glyph glyph-name="exclamdown" horiz-adv-x="264" unicode="¡" d="M191 250l13 -430h-145l14 430h118zM204 500v-161h-144v161h144z"/>
<glyph glyph-name="cent" d="M270 -75v104q-182 13 -182 221q0 205 182 220v101h110v-105l79 -13l-4 -100q-79 3 -117 3q-63 0 -88.5 -24.5t-25.5 -81.5t26 -82t89 -25l116 4l4 -100q-39 -10 -79 -13v-109h-110z" unicode="¢"/>
<glyph glyph-name="sterling" d="M468 647l-4 -104q-68 8 -131 8q-52 0 -52 -65v-53h153v-114h-153v-205h124l69 16l21 -112l-81 -18h-339v114h74v205h-64v114h64v59q0 104 40 141.5t126 37.5q33 0 71.5 -6t59.5 -12z" unicode="£"/>
<glyph glyph-name="currency" d="M280 166q35 0 60.5 25.5t25.5 60.5t-25.5 60.5t-60.5 25.5t-60.5 -25.5t-25.5 -60.5t25.5 -60.5t60.5 -25.5zM438 2l-73 73q-40 -20 -85 -20t-85 20l-73 -73l-92 92l72 72q-19 41 -19 86q0 44 19 85l-72 73l92 92l72 -73q40 20 86 20q45 0 85 -20l73 73l92 -92l-73 -73 q20 -40 20 -85q0 -46 -20 -86l73 -72z" unicode="¤"/>
<glyph glyph-name="yen" d="M58 291v112h92l-145 257h153l123 -211l122 211h153l-143 -257h89v-112h-151v-45h151v-112h-151v-134h-138v134h-155v112h155v45h-155z" unicode="¥"/>
<glyph glyph-name="brokenbar" horiz-adv-x="272" unicode="¦" d="M69 170h134v-380h-134v380zM69 700h134v-372h-134v372z"/>
<glyph glyph-name="section" horiz-adv-x="517" unicode="§" d="M258 285q-8 2 -33 8t-36 9q-17 -26 -17 -64q0 -29 11.5 -40t48.5 -21q42 -12 89 -28q18 23 18 73q0 25 -16 37.5t-65 25.5zM450 614l-6 -108q-113 16 -161 16q-58 0 -77 -14t-19 -51q0 -22 27 -33.5t109 -31.5q90 -22 121 -51t31 -100q0 -68 -50 -139q20 -19 29 -41 t9 -68q0 -97 -51.5 -140t-165.5 -43q-31 0 -77.5 6t-77.5 12l-31 5l13 108q108 -15 163 -15q52 0 75.5 13.5t23.5 43.5q0 27 -25 39t-117 35q-88 22 -122 53.5t-34 102.5q0 35 20 74.5t44 59.5q-44 32 -44 108q0 183 217 183q32 0 76 -6t72 -12z"/>
<glyph glyph-name="dieresis" horiz-adv-x="268" unicode="¨" d="M186 596v132h128v-132h-128zM-30 596v132h128v-132h-128z"/>
<glyph glyph-name="copyright" horiz-adv-x="643" unicode="©" d="M407 369l7 -82q-28 -18 -84 -18q-69 0 -98.5 36t-29.5 134q0 89 30.5 124t101.5 35q21 0 41 -4t29 -8l10 -3l-7 -86q-35 6 -67 6q-20 0 -27.5 -14t-7.5 -50q0 -75 35 -75zM108 434q0 -93 61 -158.5t151 -65.5q93 0 154 65t61 159q0 92 -61.5 158t-152.5 66 q-90 0 -151.5 -65.5t-61.5 -158.5zM46 434q0 123 78 203.5t198 80.5q123 0 199 -82.5t76 -201.5q0 -123 -76 -203.5t-201 -80.5q-117 0 -195.5 82t-78.5 202z"/>
<glyph glyph-name="ordfeminine" horiz-adv-x="416" unicode="ª" d="M236 458l-47 -3q-32 -3 -32 -27q0 -26 31 -26q9 0 21 4t19 8l8 4v40zM351 544v-141q8 -6 18 -8l-2 -82q-68 0 -91.5 7.5t-35.5 25.5q-42 -32 -89 -32q-53 0 -81 29.5t-28 80.5q0 95 127 101l67 3v22q0 15 -44 15l-131 -7l-3 75q70 26 141 26q77 0 114.5 -24.5t37.5 -90.5 z"/>
<glyph glyph-name="guillemotleft" horiz-adv-x="601" unicode="«" d="M546 319l-109 -75l109 -86v-135l-223 171v96l223 164v-135zM263 319l-109 -75l109 -86v-135l-223 171v96l223 164v-135z"/>
<glyph glyph-name="logicalnot" d="M57 358h436v-254h-120v134h-316v120z" unicode="¬"/>
<glyph glyph-name="registered" horiz-adv-x="643" unicode="®" d="M296 519v-79h28q34 0 34 39q0 40 -35 40h-27zM354 276l-28 93h-29v-93h-96v315h136q52 0 83 -25.5t31 -79.5q0 -39 -8 -60.5t-30 -39.5l41 -110h-100zM108 434q0 -92 62 -158t151 -66q92 0 153 65.5t61 158.5q0 92 -61.5 158t-152.5 66q-90 0 -151.5 -66t-61.5 -158z M46 434q0 123 78 203.5t197 80.5q123 0 199.5 -82.5t76.5 -201.5q0 -123 -75.5 -203.5t-200.5 -80.5q-118 0 -196.5 81.5t-78.5 202.5z"/>
<glyph glyph-name="macron" horiz-adv-x="268" unicode="¯" d="M-5 597v100h287v-100h-287z"/>
<glyph glyph-name="degree" d="M205 542q0 -34 20.5 -55t54.5 -21t55.5 21t21.5 55t-21.5 55.5t-55.5 21.5t-54.5 -21.5t-20.5 -55.5zM130 542q0 67 41.5 108.5t108.5 41.5t108.5 -41.5t41.5 -108.5t-41.5 -108t-108.5 -41t-108.5 41t-41.5 108z" unicode="°"/>
<glyph glyph-name="plusminus" d="M50 139h460v-120h-460v120zM50 270v120h169v108h120v-108h171v-120h-171v-100h-120v100h-169z" unicode="±"/>
<glyph glyph-name="twosuperior" horiz-adv-x="280" unicode="²" d="M252 478h-231v90l73 59q46 37 46 57q0 15 -37 15l-76 -6l-4 99q73 9 118 9q61 0 86 -23t25 -77q0 -33 -13 -55.5t-43 -44.5l-38 -28h94v-95z"/>
<glyph glyph-name="threesuperior" horiz-adv-x="280" unicode="³" d="M24 792q68 9 108 9q121 0 121 -89q0 -53 -29 -70q35 -15 35 -73q0 -51 -31 -76.5t-87 -25.5l-121 8l6 93q61 -6 94 -6q29 0 29 16q0 14 -26 14h-66v85h64q20 0 20 14q0 15 -27 15l-84 -5z"/>
<glyph glyph-name="acute" horiz-adv-x="268" unicode="´" d="M5 651l252 102l40 -115l-262 -74z"/>
<glyph glyph-name="mu" d="M363 500h134v-500h-133v28q-72 -40 -125 -40q-23 0 -42 3v-201h-134v710h134v-289q1 -58 14 -80.5t56 -22.5q22 0 46 4.5t37 9.5l13 4v374z" unicode="µ"/>
<glyph glyph-name="paragraph" horiz-adv-x="599" unicode="¶" d="M397 0v566h-62v-566h-114v286h-7q-84 0 -135 54.5t-51 141.5t52 142.5t136 55.5h331v-114h-36v-566h-114z"/>
<glyph glyph-name="periodcentered" horiz-adv-x="256" unicode="·" d="M56 167v166h144v-166h-144z"/>
<glyph glyph-name="cedilla" horiz-adv-x="264" unicode="¸" d="M234 -127q0 -57 -29 -85.5t-82 -28.5q-19 0 -42.5 2.5t-36.5 5.5l-14 3l4 78q31 -1 48 -1q38 0 38 26q0 22 -38 22h-24v106h53v-38q64 -1 93.5 -19t29.5 -71z"/>
<glyph glyph-name="onesuperior" horiz-adv-x="280" unicode="¹" d="M10 715l106 75h96v-312h-106v195l-47 -32z"/>
<glyph glyph-name="ordmasculine" horiz-adv-x="420" unicode="º" d="M211 419q29 0 38.5 16t9.5 53t-9.5 52t-38.5 15t-40 -15.5t-11 -51.5t11 -52.5t40 -16.5zM211 659q169 0 169 -170q0 -175 -169 -175q-171 0 -171 175q0 170 171 170z"/>
<glyph glyph-name="guillemotright" horiz-adv-x="603" unicode="»" d="M164 244l-109 75v135l223 -164v-96l-223 -171v135zM447 244l-109 75v135l223 -164v-96l-223 -171v135z"/>
<glyph glyph-name="onequarter" horiz-adv-x="548" unicode="¼" d="M409 -100v35h-132v88l39 189h118l-52 -182h27l14 90h91v-90h11v-95h-11v-35h-105zM29 29l393 632l53 -35l-393 -633zM18 715l106 75h96v-312h-106v195l-47 -32z"/>
<glyph glyph-name="onehalf" horiz-adv-x="542" unicode="½" d="M512 -100h-231v90l73 59q46 37 46 57q0 15 -37 15l-76 -6l-4 99q73 9 118 9q61 0 86 -23t25 -77q0 -33 -13 -55.5t-43 -44.5l-38 -28h94v-95zM29 29l393 632l53 -35l-393 -633zM18 715l106 75h96v-312h-106v195l-47 -32z"/>
<glyph glyph-name="threequarters" horiz-adv-x="561" unicode="¾" d="M423 -100v35h-132v88l39 189h118l-52 -182h27l14 90h91v-90h11v-95h-11v-35h-105zM43 29l393 632l53 -35l-393 -633zM40 792q68 9 108 9q121 0 121 -89q0 -53 -29 -70q35 -15 35 -73q0 -51 -31 -76.5t-87 -25.5l-121 8l6 93q61 -6 94 -6q29 0 29 16q0 14 -26 14h-66v85 h64q20 0 20 14q0 15 -27 15l-84 -5z"/>
<glyph glyph-name="questiondown" horiz-adv-x="433" unicode="¿" d="M315 500v-161h-144v161h144zM29 -28q0 70 15.5 105.5t66.5 73.5q49 37 62 57t13 44v31h107q31 -34 31 -91q0 -36 -72 -94q-55 -44 -69.5 -63.5t-14.5 -47.5q0 -59 85 -59q30 0 66 4t57 8l21 4l7 -101q-86 -35 -170 -35q-108 0 -156.5 39t-48.5 125z"/>
<glyph glyph-name="Agrave" horiz-adv-x="602" unicode="À" d="M183 945l252 -106l-33 -93l-260 79zM277 566l-69 -323h186l-69 323h-48zM17 0l153 680h262l153 -680h-138l-27 123h-238l-27 -123h-138z"/>
<glyph glyph-name="Aacute" horiz-adv-x="602" unicode="Á" d="M162 839l252 106l41 -120l-260 -79zM277 566l-69 -323h186l-69 323h-48zM17 0l153 680h262l153 -680h-138l-27 123h-238l-27 -123h-138z"/>
<glyph glyph-name="Acircumflex" horiz-adv-x="602" unicode="Â" d="M107 765l134 149h117l134 -149h-142l-49 56l-52 -56h-142zM277 566l-69 -323h186l-69 323h-48zM17 0l153 680h262l153 -680h-138l-27 123h-238l-27 -123h-138z"/>
<glyph glyph-name="Atilde" horiz-adv-x="602" unicode="Ã" d="M457 918l29 -97q-6 -7 -16.5 -17.5t-38.5 -28t-52 -17.5q-28 0 -91.5 23t-77.5 23q-12 0 -32 -10.5t-34 -21.5l-14 -10l-29 96q6 7 16.5 17.5t38.5 28.5t52 18q35 0 96 -23t71 -23q12 0 32.5 10.5t34.5 21.5zM277 566l-69 -323h186l-69 323h-48zM17 0l153 680h262 l153 -680h-138l-27 123h-238l-27 -123h-138z"/>
<glyph glyph-name="Adieresis" horiz-adv-x="602" unicode="Ä" d="M343 764v132h128v-132h-128zM129 764v132h128v-132h-128zM277 566l-69 -323h186l-69 323h-48zM17 0l153 680h262l153 -680h-138l-27 123h-238l-27 -123h-138z"/>
<glyph glyph-name="Aring" horiz-adv-x="602" unicode="Å" d="M242 721q0 -18 14 -29t39 -12h6q27 0 43 11t16 30t-16 30t-43 11t-43 -11t-16 -30zM277 566l-69 -323h186l-69 323h-48zM451 721q0 -31 -15 -59l149 -662h-138l-27 123h-238l-27 -123h-138l149 662q-15 25 -15 59q0 59 43 92.5t107 33.5t107 -33.5t43 -92.5z"/>
<glyph glyph-name="AE" horiz-adv-x="871" unicode="Æ" d="M293 558l-80 -309h179l1 309h-100zM392 0v116h-213l-29 -116h-138l184 690h634v-132h-302v-143h242v-131h-242v-152h302v-132h-438z"/>
<glyph glyph-name="Ccedilla" horiz-adv-x="543" unicode="Ç" d="M438 -127q0 -57 -29 -85.5t-82 -28.5q-19 0 -42.5 2.5t-36.5 5.5l-14 3l4 78q31 -1 48 -1q38 0 38 26q0 22 -38 22h-24v95q-124 11 -169.5 93.5t-45.5 256.5q0 197 55.5 274.5t204.5 77.5q86 0 199 -27l-4 -110q-99 15 -175 15q-55 0 -83 -17.5t-41.5 -66.5t-13.5 -146 q0 -139 27.5 -184.5t114.5 -45.5q78 0 171 14l3 -113q-94 -21 -190 -23v-25q64 -1 93.5 -19t29.5 -71z"/>
<glyph glyph-name="Egrave" horiz-adv-x="554" unicode="È" d="M180 945l252 -106l-33 -93l-260 79zM74 0v680h440v-120h-302v-159h242v-118h-242v-163h302v-120h-440z"/>
<glyph glyph-name="Eacute" horiz-adv-x="554" unicode="É" d="M154 839l252 106l41 -120l-260 -79zM74 0v680h440v-120h-302v-159h242v-118h-242v-163h302v-120h-440z"/>
<glyph glyph-name="Ecircumflex" horiz-adv-x="554" unicode="Ê" d="M105 765l134 149h117l134 -149h-142l-49 56l-52 -56h-142zM74 0v680h440v-120h-302v-159h242v-118h-242v-163h302v-120h-440z"/>
<glyph glyph-name="Edieresis" horiz-adv-x="554" unicode="Ë" d="M337 764v132h128v-132h-128zM123 764v132h128v-132h-128zM74 0v680h440v-120h-302v-159h242v-118h-242v-163h302v-120h-440z"/>
<glyph glyph-name="Igrave" horiz-adv-x="286" unicode="Ì" d="M17 945l252 -106l-33 -93l-260 79zM74 0v680h138v-680h-138z"/>
<glyph glyph-name="Iacute" horiz-adv-x="286" unicode="Í" d="M7 839l252 106l41 -120l-260 -79zM74 0v680h138v-680h-138z"/>
<glyph glyph-name="Icircumflex" horiz-adv-x="286" unicode="Î" d="M-50 765l134 149h117l134 -149h-142l-49 56l-52 -56h-142zM74 0v680h138v-680h-138z"/>
<glyph glyph-name="Idieresis" horiz-adv-x="286" unicode="Ï" d="M186 764v132h128v-132h-128zM-28 764v132h128v-132h-128zM74 0v680h138v-680h-138z"/>
<glyph glyph-name="Eth" horiz-adv-x="642" unicode="Ð" d="M453 358q0 39 -1.5 64t-6.5 50t-15 39.5t-26.5 26t-40.5 16.5t-57 5h-91v-150h130v-132h-130v-146h91q39 0 66.5 10.5t43 27.5t24 48t11 62t2.5 79zM25 277v132h54v281h227q88 0 145 -19t88.5 -62.5t43.5 -102t12 -148.5q0 -95 -11 -156t-41.5 -109.5t-88.5 -70.5 t-148 -22h-227v277h-54z"/>
<glyph glyph-name="Ntilde" horiz-adv-x="693" unicode="Ñ" d="M505 918l29 -97q-6 -7 -16.5 -17.5t-38.5 -28t-52 -17.5q-28 0 -91.5 23t-77.5 23q-12 0 -32 -10.5t-34 -21.5l-14 -10l-29 96q6 7 16.5 17.5t38.5 28.5t52 18q35 0 96 -23t71 -23q12 0 32.5 10.5t34.5 21.5zM74 0v680h233l164 -560h10v560h138v-680h-227l-170 560h-10 v-560h-138z"/>
<glyph glyph-name="Ograve" horiz-adv-x="652" unicode="Ò" d="M204 945l252 -106l-33 -93l-260 79zM326 -12q-155 0 -218.5 84.5t-63.5 263.5q0 181 63.5 268.5t218.5 87.5t218.5 -87.5t63.5 -268.5q0 -179 -63.5 -263.5t-218.5 -84.5zM326 108q81 0 110.5 52.5t29.5 175.5q0 124 -30 180t-110 56t-110 -56t-30 -180 q0 -123 29.5 -175.5t110.5 -52.5z"/>
<glyph glyph-name="Oacute" horiz-adv-x="652" unicode="Ó" d="M167 839l252 106l41 -120l-260 -79zM326 -12q-155 0 -218.5 84.5t-63.5 263.5q0 181 63.5 268.5t218.5 87.5t218.5 -87.5t63.5 -268.5q0 -179 -63.5 -263.5t-218.5 -84.5zM326 108q81 0 110.5 52.5t29.5 175.5q0 124 -30 180t-110 56t-110 -56t-30 -180 q0 -123 29.5 -175.5t110.5 -52.5z"/>
<glyph glyph-name="Ocircumflex" horiz-adv-x="652" unicode="Ô" d="M135 765l134 149h117l134 -149h-142l-49 56l-52 -56h-142zM326 -12q-155 0 -218.5 84.5t-63.5 263.5q0 181 63.5 268.5t218.5 87.5t218.5 -87.5t63.5 -268.5q0 -179 -63.5 -263.5t-218.5 -84.5zM326 108q81 0 110.5 52.5t29.5 175.5q0 124 -30 180t-110 56t-110 -56 t-30 -180q0 -123 29.5 -175.5t110.5 -52.5z"/>
<glyph glyph-name="Otilde" horiz-adv-x="652" unicode="Õ" d="M489 918l29 -97q-6 -7 -16.5 -17.5t-38.5 -28t-52 -17.5q-28 0 -91.5 23t-77.5 23q-12 0 -32 -10.5t-34 -21.5l-14 -10l-29 96q6 7 16.5 17.5t38.5 28.5t52 18q35 0 96 -23t71 -23q12 0 32.5 10.5t34.5 21.5zM326 -12q-155 0 -218.5 84.5t-63.5 263.5q0 181 63.5 268.5 t218.5 87.5t218.5 -87.5t63.5 -268.5q0 -179 -63.5 -263.5t-218.5 -84.5zM326 108q81 0 110.5 52.5t29.5 175.5q0 124 -30 180t-110 56t-110 -56t-30 -180q0 -123 29.5 -175.5t110.5 -52.5z"/>
<glyph glyph-name="Odieresis" horiz-adv-x="652" unicode="Ö" d="M369 764v132h128v-132h-128zM155 764v132h128v-132h-128zM326 -12q-155 0 -218.5 84.5t-63.5 263.5q0 181 63.5 268.5t218.5 87.5t218.5 -87.5t63.5 -268.5q0 -179 -63.5 -263.5t-218.5 -84.5zM326 108q81 0 110.5 52.5t29.5 175.5q0 124 -30 180t-110 56t-110 -56 t-30 -180q0 -123 29.5 -175.5t110.5 -52.5z"/>
<glyph glyph-name="multiply" d="M142 473l138 -141l140 143l84 -85l-143 -140l143 -139l-85 -85l-139 142l-139 -141l-85 84l142 139l-141 138z" unicode="×"/>
<glyph glyph-name="Oslash" horiz-adv-x="652" unicode="Ø" d="M326 108q81 0 110.5 52.5t29.5 175.5q0 89 -14 139l-169 -363q17 -4 43 -4zM186 336q0 -93 15 -142l173 371q-24 7 -48 7q-80 0 -110 -56t-30 -180zM326 -12q-49 0 -96 10l-58 -125l-98 49l58 124q-88 78 -88 290q0 181 63.5 268.5t218.5 87.5q58 0 101 -12l61 130 l100 -43l-65 -140q85 -82 85 -291q0 -179 -63.5 -263.5t-218.5 -84.5z"/>
<glyph glyph-name="Ugrave" horiz-adv-x="654" unicode="Ù" d="M216 945l252 -106l-33 -93l-260 79zM206 227q0 -119 121 -119t121 119v453h138v-450q0 -125 -64.5 -183.5t-194.5 -58.5t-194.5 58.5t-64.5 183.5v450h138v-453z"/>
<glyph glyph-name="Uacute" horiz-adv-x="654" unicode="Ú" d="M175 839l252 106l41 -120l-260 -79zM206 227q0 -119 121 -119t121 119v453h138v-450q0 -125 -64.5 -183.5t-194.5 -58.5t-194.5 58.5t-64.5 183.5v450h138v-453z"/>
<glyph glyph-name="Ucircumflex" horiz-adv-x="654" unicode="Û" d="M135 765l134 149h117l134 -149h-142l-49 56l-52 -56h-142zM206 227q0 -119 121 -119t121 119v453h138v-450q0 -125 -64.5 -183.5t-194.5 -58.5t-194.5 58.5t-64.5 183.5v450h138v-453z"/>
<glyph glyph-name="Udieresis" horiz-adv-x="654" unicode="Ü" d="M370 764v132h128v-132h-128zM156 764v132h128v-132h-128zM206 227q0 -119 121 -119t121 119v453h138v-450q0 -125 -64.5 -183.5t-194.5 -58.5t-194.5 58.5t-64.5 183.5v450h138v-453z"/>
<glyph glyph-name="Yacute" horiz-adv-x="557" unicode="Ý" d="M133 839l252 106l41 -120l-260 -79zM348 275v-275h-138v275l-210 405h153l125 -271l125 271h153z"/>
<glyph glyph-name="Thorn" horiz-adv-x="596" unicode="Þ" d="M324 99h-112v-99h-138v690h138v-98h112q244 0 244 -239q0 -121 -62.5 -187.5t-181.5 -66.5zM323 233q51 0 78 31.5t27 88.5q0 107 -105 107h-111v-227h111z"/>
<glyph glyph-name="germandbls" horiz-adv-x="611" unicode="ß" d="M196 0h-134v522q0 102 53.5 146t177.5 44q116 0 173 -37t57 -120q0 -54 -21.5 -79t-72.5 -48q-37 -16 -48 -25t-11 -22q0 -15 16 -27t78 -40q71 -33 97.5 -62.5t26.5 -87.5q0 -101 -45.5 -138.5t-156.5 -37.5q-29 0 -67.5 6t-62.5 12l-24 5l4 107q97 -12 134 -12 q80 0 80 38q0 23 -15 35t-76 38q-71 30 -99 63.5t-28 87.5q0 48 18 76t59 45q47 19 61.5 30t14.5 26q0 27 -20 38t-72 11q-55 0 -76 -17.5t-21 -57.5v-519z"/>
<glyph glyph-name="agrave" horiz-adv-x="511" unicode="à" d="M143 753l252 -102l-30 -87l-262 74zM311 220l-91 -8q-56 -5 -56 -56q0 -59 49 -59q19 0 43.5 4t39.5 8l15 4v107zM445 344v-208q2 -24 8 -33.5t25 -13.5l-4 -101q-51 0 -81.5 7t-61.5 28q-72 -35 -147 -35q-155 0 -155 164q0 80 43 113.5t132 39.5l107 8v31 q0 31 -14 42.5t-45 11.5l-188 -8l-4 93q107 29 203 29q97 0 139.5 -40t42.5 -128z"/>
<glyph glyph-name="aacute" horiz-adv-x="511" unicode="á" d="M96 651l252 102l40 -115l-262 -74zM311 220l-91 -8q-56 -5 -56 -56q0 -59 49 -59q19 0 43.5 4t39.5 8l15 4v107zM445 344v-208q2 -24 8 -33.5t25 -13.5l-4 -101q-51 0 -81.5 7t-61.5 28q-72 -35 -147 -35q-155 0 -155 164q0 80 43 113.5t132 39.5l107 8v31q0 31 -14 42.5 t-45 11.5l-188 -8l-4 93q107 29 203 29q97 0 139.5 -40t42.5 -128z"/>
<glyph glyph-name="acircumflex" horiz-adv-x="511" unicode="â" d="M83 580l126 151h84l128 -151h-123l-46 67l-46 -67h-123zM311 220l-91 -8q-56 -5 -56 -56q0 -59 49 -59q19 0 43.5 4t39.5 8l15 4v107zM445 344v-208q2 -24 8 -33.5t25 -13.5l-4 -101q-51 0 -81.5 7t-61.5 28q-72 -35 -147 -35q-155 0 -155 164q0 80 43 113.5t132 39.5 l107 8v31q0 31 -14 42.5t-45 11.5l-188 -8l-4 93q107 29 203 29q97 0 139.5 -40t42.5 -128z"/>
<glyph glyph-name="atilde" horiz-adv-x="511" unicode="ã" d="M365 723l29 -76q-6 -7 -16 -17.5t-38 -27.5t-51 -17q-22 0 -68 18t-61 18q-12 0 -31.5 -7.5t-32.5 -15.5l-13 -8l-29 75q6 7 16 17t37.5 26.5t50.5 16.5q22 0 68.5 -18t58.5 -18t32 8.5t34 16.5zM311 220l-91 -8q-56 -5 -56 -56q0 -59 49 -59q19 0 43.5 4t39.5 8l15 4 v107zM445 344v-208q2 -24 8 -33.5t25 -13.5l-4 -101q-51 0 -81.5 7t-61.5 28q-72 -35 -147 -35q-155 0 -155 164q0 80 43 113.5t132 39.5l107 8v31q0 31 -14 42.5t-45 11.5l-188 -8l-4 93q107 29 203 29q97 0 139.5 -40t42.5 -128z"/>
<glyph glyph-name="adieresis" horiz-adv-x="511" unicode="ä" d="M281 596v132h128v-132h-128zM65 596v132h128v-132h-128zM311 220l-91 -8q-56 -5 -56 -56q0 -59 49 -59q19 0 43.5 4t39.5 8l15 4v107zM445 344v-208q2 -24 8 -33.5t25 -13.5l-4 -101q-51 0 -81.5 7t-61.5 28q-72 -35 -147 -35q-155 0 -155 164q0 80 43 113.5t132 39.5 l107 8v31q0 31 -14 42.5t-45 11.5l-188 -8l-4 93q107 29 203 29q97 0 139.5 -40t42.5 -128z"/>
<glyph glyph-name="aring" horiz-adv-x="511" unicode="å" d="M220 638q0 -20 13 -33t33 -13t32.5 13t12.5 33t-12.5 32.5t-32.5 12.5t-33 -12.5t-13 -32.5zM148 638q0 49 33.5 83t83.5 34q49 0 83 -34t34 -83q0 -50 -34 -83.5t-83 -33.5q-50 0 -83.5 33.5t-33.5 83.5zM311 220l-91 -8q-56 -5 -56 -56q0 -59 49 -59q19 0 43.5 4 t39.5 8l15 4v107zM445 344v-208q2 -24 8 -33.5t25 -13.5l-4 -101q-51 0 -81.5 7t-61.5 28q-72 -35 -147 -35q-155 0 -155 164q0 80 43 113.5t132 39.5l107 8v31q0 31 -14 42.5t-45 11.5l-188 -8l-4 93q107 29 203 29q97 0 139.5 -40t42.5 -128z"/>
<glyph glyph-name="ae" horiz-adv-x="784" unicode="æ" d="M444 295h173q0 53 -19.5 75t-66.5 22q-48 0 -67.5 -23t-19.5 -74zM205 103q18 0 44.5 3.5t44.5 7.5l17 4q0 16 -0.5 47t-0.5 46l-90 -4q-56 -3 -56 -51q0 -53 41 -53zM546 111q36 0 82.5 2.5t74.5 4.5l28 2l2 -104q-115 -28 -208 -28q-102 0 -153 48l-23 -11 q-84 -37 -171 -37q-73 0 -111 43.5t-38 120.5q0 80 43.5 114.5t130.5 39.5l108 7v25q0 20 -14 32.5t-36 12.5q-33 0 -81.5 -2.5t-80.5 -5.5l-32 -3l-4 117q133 22 206 22q86 0 129 -37q52 37 133 37q218 0 218 -225l-10 -94h-295q1 -43 24.5 -62t77.5 -19z"/>
<glyph glyph-name="ccedilla" horiz-adv-x="446" unicode="ç" d="M378 -127q0 -57 -29 -85.5t-82 -28.5q-19 0 -42.5 2.5t-36.5 5.5l-14 3l4 78q31 -1 48 -1q38 0 38 26q0 22 -38 22h-24v96q-87 11 -125.5 74t-38.5 190q0 134 50 195.5t161 61.5q26 0 66 -5.5t67 -10.5l27 -6l-4 -106q-79 8 -117 8q-69 0 -91.5 -29.5t-22.5 -107.5 q0 -86 22.5 -116.5t92.5 -30.5l116 8l4 -107q-97 -19 -154 -21v-25q64 -1 93.5 -19t29.5 -71z"/>
<glyph glyph-name="egrave" horiz-adv-x="510" unicode="è" d="M150 753l252 -102l-30 -87l-262 74zM171 295h173q0 60 -19 83.5t-67 23.5q-47 0 -66.5 -24.5t-20.5 -82.5zM273 106q36 0 82.5 2t74.5 4l28 3l2 -99q-115 -28 -208 -28q-113 0 -164 60t-51 195q0 269 221 269q218 0 218 -226l-10 -93h-294q1 -46 24.5 -66.5t76.5 -20.5z "/>
<glyph glyph-name="eacute" horiz-adv-x="510" unicode="é" d="M105 651l252 102l40 -115l-262 -74zM171 295h173q0 60 -19 83.5t-67 23.5q-47 0 -66.5 -24.5t-20.5 -82.5zM273 106q36 0 82.5 2t74.5 4l28 3l2 -99q-115 -28 -208 -28q-113 0 -164 60t-51 195q0 269 221 269q218 0 218 -226l-10 -93h-294q1 -46 24.5 -66.5t76.5 -20.5z "/>
<glyph glyph-name="ecircumflex" horiz-adv-x="510" unicode="ê" d="M89 580l126 151h84l128 -151h-123l-46 67l-46 -67h-123zM171 295h173q0 60 -19 83.5t-67 23.5q-47 0 -66.5 -24.5t-20.5 -82.5zM273 106q36 0 82.5 2t74.5 4l28 3l2 -99q-115 -28 -208 -28q-113 0 -164 60t-51 195q0 269 221 269q218 0 218 -226l-10 -93h-294 q1 -46 24.5 -66.5t76.5 -20.5z"/>
<glyph glyph-name="edieresis" horiz-adv-x="510" unicode="ë" d="M300 596v132h128v-132h-128zM84 596v132h128v-132h-128zM171 295h173q0 60 -19 83.5t-67 23.5q-47 0 -66.5 -24.5t-20.5 -82.5zM273 106q36 0 82.5 2t74.5 4l28 3l2 -99q-115 -28 -208 -28q-113 0 -164 60t-51 195q0 269 221 269q218 0 218 -226l-10 -93h-294 q1 -46 24.5 -66.5t76.5 -20.5z"/>
<glyph glyph-name="igrave" horiz-adv-x="258" unicode="ì" d="M-19 753l252 -102l-30 -87l-262 74zM62 0v500h134v-500h-134z"/>
<glyph glyph-name="iacute" horiz-adv-x="258" unicode="í" d="M62 500h134v-500h-134v500zM31 651l252 102l40 -115l-262 -74z"/>
<glyph glyph-name="icircumflex" horiz-adv-x="258" unicode="î" d="M-45 580l126 151h84l128 -151h-123l-46 67l-46 -67h-123zM62 500h134v-500h-134v500z"/>
<glyph glyph-name="idieresis" horiz-adv-x="258" unicode="ï" d="M168 596v132h128v-132h-128zM-48 596v132h128v-132h-128zM62 500h134v-500h-134v500z"/>
<glyph glyph-name="eth" horiz-adv-x="567" unicode="ð" d="M264 320q-41 0 -62.5 -30.5t-21.5 -73.5q0 -105 93 -105q56 0 84.5 44t28.5 143q-50 22 -122 22zM168 467l-54 76l76 51q-46 12 -108 24l18 94q121 -9 209 -39l96 64l54 -76l-54 -36q123 -88 123 -278q0 -183 -60 -269.5t-195 -86.5q-235 0 -235 225q0 104 54.5 163 t163.5 59q31 0 63.5 -6t49.5 -12l17 -6q-5 47 -25 80.5t-64 58.5z"/>
<glyph glyph-name="ntilde" horiz-adv-x="553" unicode="ñ" d="M422 723l29 -76q-6 -7 -16 -17.5t-38 -27.5t-51 -17q-22 0 -68 18t-61 18q-12 0 -31.5 -7.5t-32.5 -15.5l-13 -8l-29 75q6 7 16 17t37.5 26.5t50.5 16.5q22 0 68.5 -18t58.5 -18t32 8.5t34 16.5zM62 0v500h133v-28q68 40 125 40q100 0 138 -59t38 -182v-271h-134v267 q0 64 -15 94.5t-60 30.5q-21 0 -43.5 -4.5t-35.5 -9.5l-12 -4v-374h-134z"/>
<glyph glyph-name="ograve" horiz-adv-x="532" unicode="ò" d="M163 753l252 -102l-30 -87l-262 74zM266 102q53 0 73.5 36t20.5 113t-20.5 112t-73.5 35t-73.5 -35t-20.5 -112t20.5 -113t73.5 -36zM266 512q124 0 177 -68.5t53 -192.5q0 -263 -230 -263t-230 263q0 124 53 192.5t177 68.5z"/>
<glyph glyph-name="oacute" horiz-adv-x="532" unicode="ó" d="M116 651l252 102l40 -115l-262 -74zM266 102q53 0 73.5 36t20.5 113t-20.5 112t-73.5 35t-73.5 -35t-20.5 -112t20.5 -113t73.5 -36zM266 512q124 0 177 -68.5t53 -192.5q0 -263 -230 -263t-230 263q0 124 53 192.5t177 68.5z"/>
<glyph glyph-name="ocircumflex" horiz-adv-x="532" unicode="ô" d="M91 580l126 151h84l128 -151h-123l-46 67l-46 -67h-123zM266 102q53 0 73.5 36t20.5 113t-20.5 112t-73.5 35t-73.5 -35t-20.5 -112t20.5 -113t73.5 -36zM266 512q124 0 177 -68.5t53 -192.5q0 -263 -230 -263t-230 263q0 124 53 192.5t177 68.5z"/>
<glyph glyph-name="otilde" horiz-adv-x="532" unicode="õ" d="M402 723l29 -76q-6 -7 -16 -17.5t-38 -27.5t-51 -17q-22 0 -68 18t-61 18q-12 0 -31.5 -7.5t-32.5 -15.5l-13 -8l-29 75q6 7 16 17t37.5 26.5t50.5 16.5q22 0 68.5 -18t58.5 -18t32 8.5t34 16.5zM266 102q53 0 73.5 36t20.5 113t-20.5 112t-73.5 35t-73.5 -35t-20.5 -112 t20.5 -113t73.5 -36zM266 512q124 0 177 -68.5t53 -192.5q0 -263 -230 -263t-230 263q0 124 53 192.5t177 68.5z"/>
<glyph glyph-name="odieresis" horiz-adv-x="532" unicode="ö" d="M309 596v132h128v-132h-128zM93 596v132h128v-132h-128zM266 102q53 0 73.5 36t20.5 113t-20.5 112t-73.5 35t-73.5 -35t-20.5 -112t20.5 -113t73.5 -36zM266 512q124 0 177 -68.5t53 -192.5q0 -263 -230 -263t-230 263q0 124 53 192.5t177 68.5z"/>
<glyph glyph-name="divide" d="M213 17v132h132v-132h-132zM50 191v120h460v-120h-460zM213 352v132h132v-132h-132z" unicode="÷"/>
<glyph glyph-name="oslash" horiz-adv-x="532" unicode="ø" d="M266 398q-53 0 -73.5 -35t-20.5 -112q0 -63 12 -95l95 241q-2 0 -6.5 0.5t-6.5 0.5zM266 102q53 0 73.5 36t20.5 113q0 65 -14 99l-100 -247q6 -1 20 -1zM266 512q28 0 56 -5l40 100l81 -30l-41 -98q94 -59 94 -228q0 -263 -230 -263q-34 0 -63 6l-41 -102l-80 30l43 103 q-89 60 -89 226q0 124 53 192.5t177 68.5z"/>
<glyph glyph-name="ugrave" horiz-adv-x="553" unicode="ù" d="M138 753l252 -102l-30 -87l-262 74zM357 500h134v-500h-133v28q-72 -40 -125 -40q-104 0 -140 57.5t-36 192.5v262h134v-264q0 -74 12 -101t58 -27q22 0 46 4.5t37 9.5l13 4v374z"/>
<glyph glyph-name="uacute" horiz-adv-x="553" unicode="ú" d="M130 651l252 102l40 -115l-262 -74zM491 500v-500h-133v28q-72 -40 -125 -40q-104 0 -140 57.5t-36 192.5v262h134v-264q0 -74 12 -101t58 -27q22 0 46 4.5t37 9.5l13 4v374h134z"/>
<glyph glyph-name="ucircumflex" horiz-adv-x="553" unicode="û" d="M82 580l126 151h84l128 -151h-123l-46 67l-46 -67h-123zM491 500v-500h-133v28q-72 -40 -125 -40q-104 0 -140 57.5t-36 192.5v262h134v-264q0 -74 12 -101t58 -27q22 0 46 4.5t37 9.5l13 4v374h134z"/>
<glyph glyph-name="udieresis" horiz-adv-x="553" unicode="ü" d="M322 596v132h128v-132h-128zM106 596v132h128v-132h-128zM491 500v-500h-133v28q-72 -40 -125 -40q-104 0 -140 57.5t-36 192.5v262h134v-264q0 -74 12 -101t58 -27q22 0 46 4.5t37 9.5l13 4v374h134z"/>
<glyph glyph-name="yacute" horiz-adv-x="500" unicode="ý" d="M122 651l252 102l40 -115l-262 -74zM16 500h132l91 -386h23l91 386h132l-176 -710h-131l55 210h-94z"/>
<glyph glyph-name="thorn" horiz-adv-x="544" unicode="þ" d="M304 512q105 0 153.5 -57.5t48.5 -199.5q0 -154 -53 -210.5t-174 -56.5q-16 0 -37 2t-34 4l-12 2v-206h-134v910h134v-215q64 27 108 27zM269 104q58 0 79.5 34t21.5 117q0 137 -84 137q-18 0 -40.5 -3t-35.5 -7l-14 -3v-269q45 -6 73 -6z"/>
<glyph glyph-name="OE" horiz-adv-x="902" unicode="Œ" d="M330 124q25 0 93 6v430q-70 6 -97 6q-55 0 -83.5 -17.5t-41.5 -65t-13 -138.5q0 -131 27.5 -176t114.5 -45zM861 0h-436q-76 -12 -119 -12q-151 0 -205.5 83.5t-54.5 273.5q0 196 58.5 276.5t201.5 80.5q43 0 117 -12h438v-132h-302v-143h242v-131h-242v-152h302v-132z "/>
<glyph glyph-name="oe" horiz-adv-x="834" unicode="œ" d="M494 295h173q0 53 -19.5 75t-66.5 22t-67 -23.5t-20 -73.5zM266 109q53 0 73.5 34t20.5 107t-20.5 106.5t-73.5 33.5t-73.5 -33.5t-20.5 -106.5t20.5 -107t73.5 -34zM596 111q36 0 82.5 2.5t74.5 4.5l28 2l2 -104q-115 -28 -208 -28q-108 0 -153 68q-48 -68 -156 -68 q-124 0 -177 69t-53 193t53 192.5t177 68.5q58 0 97 -18.5t65 -62.5q26 45 63.5 63t89.5 18q218 0 218 -225l-10 -94h-294q1 -43 24 -62t77 -19z"/>
<glyph glyph-name="Scaron" horiz-adv-x="544" unicode="Š" d="M235 765l-134 149h142l52 -56l49 56h142l-134 -149h-117zM493 665l-11 -109q-141 16 -199 16q-109 0 -109 -72q0 -32 27 -49t114 -45q112 -36 152 -76.5t40 -124.5q0 -107 -65 -162t-170 -55q-41 0 -98 8t-93 16l-36 7l14 107q134 -18 205 -18q106 0 106 88 q0 32 -24.5 50t-97.5 39q-116 33 -163.5 78.5t-47.5 126.5q0 102 62 152t170 50q40 0 96 -7t92 -13z"/>
<glyph glyph-name="scaron" horiz-adv-x="472" unicode="š" d="M203 580l-126 151h123l46 -67l46 67h123l-128 -151h-84zM423 486l-2 -111q-124 16 -182 16q-41 0 -55.5 -9t-14.5 -31q0 -17 19.5 -24.5t91.5 -20.5q89 -16 123 -49t34 -107q0 -162 -201 -162q-33 0 -81 6t-79 12l-32 6l4 112q124 -16 175 -16q46 0 63.5 9.5t17.5 29.5 q0 18 -18.5 27t-84.5 20q-89 15 -127 46t-38 108q0 82 54 122.5t139 40.5q32 0 80.5 -6.5t80.5 -12.5z"/>
<glyph glyph-name="Ydieresis" horiz-adv-x="557" unicode="Ÿ" d="M319 764v132h128v-132h-128zM105 764v132h128v-132h-128zM348 275v-275h-138v275l-210 405h153l125 -271l125 271h153z"/>
<glyph glyph-name="circumflex" horiz-adv-x="268" unicode="ˆ" d="M-24 580l126 151h84l128 -151h-123l-46 67l-46 -67h-123z"/>
<glyph glyph-name="tilde" horiz-adv-x="268" unicode="˜" d="M289 723l29 -76q-6 -7 -16 -17.5t-38 -27.5t-51 -17q-22 0 -68 18t-61 18q-12 0 -31.5 -7.5t-32.5 -15.5l-13 -8l-29 75q6 7 16 17t37.5 26.5t50.5 16.5q22 0 68.5 -18t58.5 -18t32 8.5t34 16.5z"/>
<glyph glyph-name="pi" d="M320 154v232h-85l-26 -386h-135l32 386q-14 0 -36 -3t-37 -7l-15 -3v109q64 18 150 18h251q25 0 52.5 3t42.5 6l14 3v-110q-24 -11 -74 -14v-234q0 -27 14 -38.5t55 -11.5v-114q-70 0 -108.5 6t-60.5 26.5t-28 49t-6 82.5z" unicode="π"/>
<glyph glyph-name="endash" horiz-adv-x="614" unicode="–" d="M57 323h500v-114h-500v114z"/>
<glyph glyph-name="emdash" horiz-adv-x="1114" unicode="—" d="M57 323h1000v-114h-1000v114z"/>
<glyph glyph-name="quoteleft" horiz-adv-x="259" unicode="‘" d="M223 679l-48 -247h-140l85 247h103z"/>
<glyph glyph-name="quotesinglbase" horiz-adv-x="256" unicode="‚" d="M23 -117l47 247h141l-85 -247h-103z"/>
<glyph glyph-name="quotedblleft" horiz-adv-x="443" unicode="“" d="M223 679l-48 -247h-140l85 247h103zM407 679l-48 -247h-140l85 247h103z"/>
<glyph glyph-name="quotedblright" horiz-adv-x="439" unicode="”" d="M225 434l47 247h141l-85 -247h-103zM41 434l47 247h141l-86 -247h-102z"/>
<glyph glyph-name="dagger" horiz-adv-x="480" unicode="†" d="M28 386v114h145v180h134v-180h145v-114h-145l-10 -457h-114l-10 457h-145z"/>
<glyph glyph-name="daggerdbl" horiz-adv-x="512" unicode="‡" d="M189 -71v180h-145v114h145v163h-145v114h145v180h134v-180h144v-114h-144v-163h145v-114h-145v-180h-134z"/>
<glyph glyph-name="ellipsis" horiz-adv-x="766" unicode="…" d="M566 0v166h144v-166h-144zM311 0v166h144v-166h-144zM56 0v166h144v-166h-144z"/>
<glyph glyph-name="perthousand" horiz-adv-x="845" unicode="‰" d="M676 134q0 -36 4.5 -51t17.5 -15t17.5 15t4.5 51t-4.5 50.5t-17.5 14.5t-17.5 -14.5t-4.5 -50.5zM578 134q0 145 120 145t120 -145q0 -146 -120 -146t-120 146zM419 134q0 -36 4.5 -51t17.5 -15t17.5 15t4.5 51t-4.5 50.5t-17.5 14.5t-17.5 -14.5t-4.5 -50.5zM321 134 q0 145 120 145t120 -145q0 -146 -120 -146t-120 146zM29 527q0 145 120 145t120 -145q0 -146 -120 -146t-120 146zM140 -8l235 707l73 -26l-235 -705zM149 592q-13 0 -17.5 -14.5t-4.5 -50.5t4.5 -51t17.5 -15t17.5 15t4.5 51t-4.5 50.5t-17.5 14.5z"/>
<glyph glyph-name="guilsinglleft" horiz-adv-x="318" unicode="‹" d="M263 319l-109 -75l109 -86v-135l-223 171v96l223 164v-135z"/>
<glyph glyph-name="guilsinglright" horiz-adv-x="318" unicode="›" d="M163 254l-109 75v135l223 -164v-96l-223 -171v135z"/>
<glyph glyph-name="fraction" horiz-adv-x="10" unicode="⁄" d="M-224 29l393 632l53 -35l-393 -633z"/>
<glyph glyph-name="Euro" d="M26 355v102h62q15 117 70.5 166t174.5 49q77 0 193 -26l-4 -107q-88 14 -169 14q-58 0 -86 -20t-40 -76h235v-102h-243v-25v-41h243v-102h-231q12 -45 40 -62.5t85 -17.5q67 0 166 13l3 -109q-101 -23 -192 -23q-114 0 -170 48t-73 151h-64v102h55v41v25h-55z" unicode="€"/>
<glyph glyph-name="trademark" horiz-adv-x="660" unicode="™" d="M305 331v313h103l41 -158l45 158h102v-313h-82v174l-34 -153h-55l-38 153v-174h-82zM80 565v79h200v-79h-41v-233h-88v233h-71z"/>
<glyph glyph-name="partialdiff" d="M264 324q-92 0 -92 -108q0 -111 91 -111q56 0 83.5 46.5t27.5 150.5q-38 22 -110 22zM85 564l-4 103q85 45 181 45q135 0 195.5 -89t60.5 -276q0 -183 -60 -269.5t-195 -86.5q-235 0 -235 225q0 106 57 164t162 58q30 0 62 -6t49 -12l16 -6q-6 105 -34 144.5t-101 39.5 q-32 0 -70.5 -8.5t-60.5 -17.5z" unicode="∂"/>
<glyph glyph-name="product" d="M335 -180v820h-113v-820h-138v820h-53v120h499v-120h-57v-820h-138z" unicode="∏"/>
<glyph glyph-name="summation" d="M268 298l-238 322v140h500v-120h-354v-15l215 -281v-93l-215 -296v-15h354v-120h-500v139z" unicode="∑"/>
<glyph glyph-name="minus" d="M62 191v120h436v-120h-436z" unicode="−"/>
<glyph glyph-name="radical" d="M1 320v120h166l92 -456h13l163 807h136l-200 -921h-214l-102 450h-54z" unicode="√"/>
<glyph glyph-name="infinity" d="M325 292q15 -29 26 -42.5t24 -13.5q36 0 36 55q0 57 -36 57q-22 0 -50 -56zM235 292q-28 56 -50 56q-36 0 -36 -57q0 -55 36 -55q13 0 24 13.5t26 42.5zM166 121q-139 0 -139 170q0 172 137 172q75 0 116 -78q41 78 116 78q137 0 137 -171t-139 -171q-75 0 -114 77 q-40 -77 -114 -77z" unicode="∞"/>
<glyph glyph-name="approxequal" d="M491 203l8 -107q-6 -6 -16.5 -14.5t-40.5 -22.5t-57 -14q-30 0 -109.5 22t-96.5 22q-22 0 -49.5 -9.5t-43.5 -19.5l-17 -10l-10 107q7 6 19 14.5t45 23t60 14.5q28 0 104.5 -22t100.5 -22q17 0 43 9.5t43 19.5zM491 423l8 -107q-6 -6 -16.5 -14.5t-40.5 -22.5t-57 -14 q-30 0 -109.5 22t-96.5 22q-22 0 -49.5 -9.5t-43.5 -19.5l-17 -10l-10 107q7 6 19 14.5t45 23t60 14.5q28 0 104.5 -22t100.5 -22q17 0 43 9.5t43 19.5z" unicode="≈"/>
<glyph glyph-name="notequal" d="M57 295v121h228l68 154l104 -41l-50 -113h94v-121h-147l-38 -87h185v-121h-238l-63 -143l-104 41l45 102h-84v121h137l38 87h-175z" unicode="≠"/>
<glyph glyph-name="lessequal" d="M66 19v120h421v-120h-421zM487 386l-272 -49l272 -54v-130l-421 121v116l421 126v-130z" unicode="≤"/>
<glyph glyph-name="greaterequal" d="M494 139v-120h-421v120h421zM345 337l-272 49v130l421 -126v-116l-421 -121v130z" unicode="≥"/>
<glyph glyph-name="lozenge" d="M289 114l94 210l-94 222h-17l-95 -222l95 -210h17zM193 0l-149 324l149 336h175l148 -336l-148 -324h-175z" unicode="◊"/>
</font>
</defs>
</svg>
